<svg width="37" height="36" viewBox="0 0 37 36" fill="none" xmlns="http://www.w3.org/2000/svg">
<path d="M8.34375 7.27578C8.34375 6.73758 8.79175 6.30078 9.34375 6.30078H25.3438C25.8958 6.30078 26.3438 6.73758 26.3438 7.27578V12.2327L24.3438 14.1827V8.25078H10.3438V27.7508H24.3438V22.4585L26.3438 20.5085V28.7258C26.3438 29.264 25.8958 29.7008 25.3438 29.7008H9.34375C8.79175 29.7008 8.34375 29.264 8.34375 28.7258V7.27578Z" fill="#2F3338"/>
<path d="M19.866 24.0219C19.4957 24.3922 18.8902 24.3922 18.5199 24.0219C18.1496 23.6516 18.1496 23.0461 18.5199 22.6758L19.5961 21.5996L20.9422 22.9457L19.866 24.0219Z" fill="#2F3338"/>
<path d="M20.9375 20.0868L29.013 12.0112C29.429 11.5952 30.1095 11.5952 30.5255 12.0112C30.9415 12.4273 30.9415 13.1077 30.5255 13.5237L22.45 21.5992L20.9375 20.0868Z" fill="#2F3338"/>
</svg>
