<svg width="50" height="50" viewBox="0 0 50 50" fill="none" xmlns="http://www.w3.org/2000/svg">
<path d="M18.1883 27.3903C17.9982 26.6408 17.2319 26.1934 16.488 26.3836C15.7385 26.5737 15.2911 27.34 15.4812 28.0839C16.6278 32.5473 20.6773 35.8473 25.5043 35.8473C30.3312 35.8473 34.3751 32.5473 35.5273 28.0839C35.7175 27.3344 35.27 26.5737 34.5205 26.3836C33.7711 26.1934 33.0104 26.6408 32.8202 27.3903C31.9812 30.6456 29.0224 33.0507 25.5099 33.0507C21.9973 33.0507 19.0329 30.6456 18.1995 27.3903H18.1883Z" fill="#2F3338"/>
<path d="M18.7891 21.581C18.7891 22.8171 19.7902 23.8183 21.0264 23.8183C22.2625 23.8183 23.2636 22.8171 23.2636 21.581C23.2636 20.3449 22.2625 19.3438 21.0264 19.3438C19.7902 19.3438 18.7891 20.3449 18.7891 21.581Z" fill="#2F3338"/>
<path d="M29.9795 23.8183C28.7434 23.8183 27.7422 22.8171 27.7422 21.581C27.7422 20.3449 28.7434 19.3438 29.9795 19.3438C31.2156 19.3438 32.2168 20.3449 32.2168 21.581C32.2168 22.8171 31.2156 23.8183 29.9795 23.8183Z" fill="#2F3338"/>
<path d="M25.5 9C16.3886 9 9 16.3886 9 25.5C9 34.6114 16.3886 42 25.5 42C34.6114 42 42 34.6114 42 25.5C42 16.3886 34.6114 9 25.5 9ZM11.7966 25.5C11.7966 17.9324 17.9324 11.7966 25.5 11.7966C33.0676 11.7966 39.2034 17.9324 39.2034 25.5C39.2034 33.0676 33.0676 39.2034 25.5 39.2034C17.9324 39.2034 11.7966 33.0676 11.7966 25.5Z" fill="#2F3338"/>
</svg>
