<svg width="50" height="50" viewBox="0 0 50 50" fill="none" xmlns="http://www.w3.org/2000/svg">
<path d="M13.5311 29.329C14.3509 28.5232 15.237 28.2756 16.1181 28.3766C17.049 28.4834 18.0968 29 19.0663 29.953L23.258 34.0747C24.2288 35.029 24.7448 36.0509 24.8509 36.9446C24.9507 37.7821 24.7113 38.6366 23.8928 39.4412C23.3496 39.9755 22.4585 39.9755 21.9147 39.4412L13.5311 31.1985C13.0025 30.6794 13.0025 29.8482 13.5311 29.329ZM45.1839 18.5089L37.5759 25.9886L30.9563 19.4809C30.3424 18.8771 29.3578 18.8764 28.7433 19.4796L27.3747 20.8236C25.7793 22.3899 23.3521 22.6002 21.5338 21.4545L29.0824 14.0392C29.2233 13.9009 29.4469 13.8952 29.5946 14.0259C30.9847 15.2575 33.0911 15.2026 34.4148 13.9009L37.5607 10.8081L45.1839 18.5089ZM20.8473 13.9704L22.7471 15.8379L18.0974 20.403C17.7949 20.6992 17.6244 21.1053 17.6244 21.5291C17.6244 21.9522 17.7943 22.3583 18.0962 22.6558L18.5206 23.0726C21.5913 26.0916 26.5144 26.0935 29.5864 23.0771L29.8485 22.82L36.4687 29.329C36.9974 29.8482 36.9974 30.6794 36.4687 31.1985L28.0852 39.4412C27.9096 39.6136 27.698 39.7305 27.4738 39.7918C27.9525 38.7724 28.118 37.6747 27.9866 36.572C27.7757 34.7941 26.8163 33.145 25.4717 31.8231L21.2799 27.7015C19.934 26.3783 18.2648 25.4448 16.4787 25.2396C15.1208 25.0836 13.7654 25.3596 12.5465 26.1086L4.83115 18.5234L12.6936 10.7935L15.9248 13.9704C17.2221 15.2461 19.3025 15.2461 20.6004 13.9704C20.6686 13.9028 20.7791 13.9028 20.8473 13.9704ZM38.6982 7.46827C38.0862 6.84996 37.0896 6.84301 36.4687 7.45312L32.2012 11.6493C32.0603 11.7876 31.8367 11.7933 31.689 11.6626C30.2989 10.431 28.1925 10.4853 26.8681 11.7876L24.9999 13.6243L23.0616 11.7182C21.7637 10.443 19.6833 10.443 18.386 11.7182C18.3178 11.7857 18.2073 11.7857 18.1391 11.7182L13.8008 7.45312C13.1863 6.84933 12.201 6.84933 11.5865 7.45312L1.47179 17.3973C1.16989 17.6948 1 18.1002 1 18.5234C1 18.9472 1.16989 19.3527 1.47179 19.6495L10.3808 28.4082C9.62102 30.0674 9.93302 32.0897 11.3168 33.4501L19.701 41.6934C21.1378 43.1063 23.2921 43.3734 24.9999 42.4943C26.7077 43.3734 28.862 43.1063 30.2989 41.6934L38.683 33.4501C40.0668 32.0897 40.3788 30.0674 39.619 28.4082L48.5281 19.6495C48.8274 19.3552 48.9967 18.9541 48.9998 18.5341C49.0024 18.1148 48.8382 17.7112 48.5432 17.4131L38.6982 7.46827Z" fill="#2F3338"/>
</svg>
