<svg width="50" height="50" viewBox="0 0 50 50" fill="none" xmlns="http://www.w3.org/2000/svg">
<path d="M6.20093 16.365C5.96593 16.6 5.83594 16.915 5.83594 17.25V38.25C5.83594 38.94 6.39594 39.5 7.08594 39.5H36.0859C36.7759 39.5 37.3359 38.94 37.3359 38.25V37H8.33594V16H7.08594C6.75594 16 6.43593 16.13 6.20093 16.365Z" fill="#F47E51"/>
<path d="M27.0859 17.75C26.2559 17.75 25.5859 17.08 25.5859 16.25C25.5859 15.42 26.2559 14.75 27.0859 14.75C27.9159 14.75 28.5859 15.42 28.5859 16.25C28.5859 17.08 27.9159 17.75 27.0859 17.75Z" fill="#F47E51"/>
<path d="M30.5859 16.25C30.5859 17.08 31.2559 17.75 32.0859 17.75C32.9159 17.75 33.5859 17.08 33.5859 16.25C33.5859 15.42 32.9159 14.75 32.0859 14.75C31.2559 14.75 30.5859 15.42 30.5859 16.25Z" fill="#F47E51"/>
<path d="M37.0859 17.75C36.2559 17.75 35.5859 17.08 35.5859 16.25C35.5859 15.42 36.2559 14.75 37.0859 14.75C37.9159 14.75 38.5859 15.42 38.5859 16.25C38.5859 17.08 37.9159 17.75 37.0859 17.75Z" fill="#F47E51"/>
<path d="M42.0859 10H12.0859C11.3959 10 10.8359 10.56 10.8359 11.25V33.25C10.8359 33.94 11.3959 34.5 12.0859 34.5H42.0859C42.7759 34.5 43.3359 33.94 43.3359 33.25V11.25C43.3359 10.56 42.7759 10 42.0859 10ZM40.8359 32H13.3359V12.5H40.8359V32Z" fill="#F47E51"/>
</svg>
