<svg width="237" height="38" viewBox="0 0 237 38" fill="none" xmlns="http://www.w3.org/2000/svg">
<g clip-path="url(#clip0_1090_1482)">
<path d="M0 18.998C0 8.50494 8.57793 -0.00195312 19.1587 -0.00195312C28.7647 -0.00195312 36.7186 7.00773 38.1038 16.1511C38.1496 16.451 37.9119 16.7182 37.6057 16.7182H33.4552C33.2049 16.7182 32.9926 16.538 32.9443 16.2947C31.6748 9.89377 25.9854 5.06564 19.1587 5.06564C11.3991 5.06564 5.10864 11.304 5.10864 18.9993C5.10864 20.0176 5.2192 21.0095 5.42761 21.966C5.48479 22.2269 5.40982 22.5004 5.2192 22.6894L2.03456 25.8477C1.77786 26.1023 1.34451 26.0178 1.21616 25.6813C0.430803 23.6006 0 21.3485 0 18.998Z" fill="white"/>
<path d="M25.5485 11.6484C26.1127 11.6484 26.5702 12.1021 26.5702 12.6617V25.3288C26.5702 25.8884 26.1127 26.3421 25.5485 26.3421H22.7387C22.1745 26.3421 21.717 25.8884 21.717 25.3288V21.2316C21.717 20.7804 21.1667 20.5536 20.8452 20.8737L11.8276 29.8167C11.4896 30.1519 11.5404 30.7102 11.9496 30.9547C14.0578 32.2087 16.5258 32.9283 19.1627 32.9283C25.8141 32.9283 31.3865 28.3434 32.8416 22.1869C32.8975 21.9525 33.1059 21.7824 33.3487 21.7824H37.5245C37.8359 21.7824 38.0761 22.0571 38.0214 22.3621C36.4189 31.2496 28.5857 37.9959 19.1627 37.9959C13.2827 37.9959 8.02026 35.3682 4.50648 31.2332C4.17607 30.845 4.21674 30.2729 4.57892 29.9137L17.2692 17.3285C17.5907 17.0097 17.3632 16.464 16.9083 16.464H12.7769C12.2126 16.464 11.7552 16.0103 11.7552 15.4507V12.6642C11.7552 12.1047 12.2126 11.651 12.7769 11.651H25.5497L25.5485 11.6484Z" fill="#F47E51"/>
<path d="M68.0329 9.32242H71.5025L66.7135 26.4258H63.2684L60.1654 15.5529L57.0868 26.4258H53.6661L48.8283 9.32242H52.2734L55.3764 20.2197L58.4306 9.32242H61.9001L64.9787 20.2197L68.0329 9.32242ZM83.777 21.5391H75.2986C75.38 21.7997 75.4941 22.0441 75.6407 22.2721C75.8036 22.5002 75.9909 22.6956 76.2026 22.8585C76.7239 23.2657 77.3266 23.4693 78.0107 23.4693C79.1021 23.4693 79.9572 23.1599 80.5762 22.5409L82.8485 24.862C81.6268 26.1 80.0142 26.719 78.0107 26.719C76.2515 26.719 74.7448 26.0919 73.4905 24.8376C72.22 23.5834 71.5847 22.0766 71.5847 20.3174C71.5847 18.5419 72.1956 17.0271 73.4172 15.7728C74.6063 14.5349 76.0886 13.9159 77.8641 13.9159C79.5419 13.9159 80.959 14.5349 82.1155 15.7728C83.2232 16.9619 83.777 18.4768 83.777 20.3174V21.5391ZM77.7908 17.0189C77.123 17.0189 76.5447 17.2144 76.056 17.6053C75.6651 17.9637 75.3882 18.4035 75.2253 18.9247H80.1853C80.0224 18.3546 79.7536 17.8985 79.379 17.5565C78.9555 17.1981 78.4261 17.0189 77.7908 17.0189ZM92.0336 17.1411C91.1702 17.1411 90.4617 17.4424 89.9078 18.0451C89.6309 18.3546 89.4192 18.6967 89.2726 19.0713C89.126 19.446 89.0527 19.8613 89.0527 20.3174C89.0527 20.7572 89.126 21.1726 89.2726 21.5635C89.4192 21.9382 89.6309 22.2721 89.9078 22.5653C90.4617 23.1843 91.1702 23.4938 92.0336 23.4938C92.9132 23.4938 93.6462 23.1843 94.2326 22.5653C94.8027 21.9463 95.0877 21.197 95.0877 20.3174C95.0877 19.4215 94.8027 18.6641 94.2326 18.0451C93.6462 17.4424 92.9132 17.1411 92.0336 17.1411ZM92.3268 13.9159C94.0697 13.9159 95.5194 14.5349 96.6759 15.7728C97.8161 17.0108 98.3862 18.5257 98.3862 20.3174C98.3862 22.1092 97.8161 23.6241 96.6759 24.862C95.5194 26.1 94.0697 26.719 92.3268 26.719C90.9911 26.719 89.8997 26.328 89.0527 25.5462C88.9875 25.4973 88.9224 25.4484 88.8572 25.3996C88.8083 25.3344 88.7595 25.2693 88.7106 25.2041V26.4258H85.803V9.32242H89.0527V15.2353C89.1341 15.1701 89.2074 15.105 89.2726 15.0398C89.354 14.9747 89.4273 14.9177 89.4925 14.8688C90.2581 14.2335 91.2028 13.9159 92.3268 13.9159ZM110.406 12.5721V17.5809H113.632C114.3 17.5809 114.886 17.3284 115.391 16.8235C115.88 16.3348 116.124 15.7565 116.124 15.0887C116.124 14.4046 115.88 13.8182 115.391 13.3295C114.886 12.8245 114.3 12.5721 113.632 12.5721H110.406ZM107.132 9.32242H113.632C115.228 9.32242 116.588 9.88438 117.712 11.0083C118.836 12.1323 119.398 13.4924 119.398 15.0887C119.398 16.6687 118.836 18.0207 117.712 19.1446C116.572 20.2686 115.212 20.8305 113.632 20.8305H110.406V26.4258H107.132V9.32242ZM132.834 21.5391H124.355C124.437 21.7997 124.551 22.0441 124.697 22.2721C124.86 22.5002 125.048 22.6956 125.259 22.8585C125.781 23.2657 126.383 23.4693 127.067 23.4693C128.159 23.4693 129.014 23.1599 129.633 22.5409L131.905 24.862C130.684 26.1 129.071 26.719 127.067 26.719C125.308 26.719 123.801 26.0919 122.547 24.8376C121.277 23.5834 120.641 22.0766 120.641 20.3174C120.641 18.5419 121.252 17.0271 122.474 15.7728C123.663 14.5349 125.145 13.9159 126.921 13.9159C128.599 13.9159 130.016 14.5349 131.172 15.7728C132.28 16.9619 132.834 18.4768 132.834 20.3174V21.5391ZM126.847 17.0189C126.18 17.0189 125.601 17.2144 125.113 17.6053C124.722 17.9637 124.445 18.4035 124.282 18.9247H129.242C129.079 18.3546 128.81 17.8985 128.436 17.5565C128.012 17.1981 127.483 17.0189 126.847 17.0189ZM134.86 14.2091H137.914V15.895C137.979 15.8298 138.036 15.7647 138.085 15.6995C138.15 15.6344 138.215 15.5692 138.28 15.5041C138.671 15.1294 139.103 14.8199 139.575 14.5756C140.406 14.1358 141.359 13.9159 142.434 13.9159V17.1655C141.326 17.1655 140.374 17.4913 139.575 18.1429C138.793 18.7781 138.305 19.6822 138.109 20.855V26.4258H134.86V14.2091ZM152.768 16.5303L149.714 17.5809C149.616 17.3366 149.453 17.1492 149.225 17.0189C149.013 16.8886 148.761 16.8235 148.467 16.8235C148.093 16.8235 147.8 16.9131 147.588 17.0922C147.36 17.2714 147.254 17.4995 147.27 17.7764C147.286 18.151 147.661 18.4198 148.394 18.5827C148.573 18.6152 148.736 18.6478 148.883 18.6804C149.029 18.713 149.152 18.7456 149.249 18.7781C150.275 19.0062 151.09 19.3808 151.693 19.9021C152.588 20.6676 153.036 21.645 153.036 22.8341C153.02 24.0883 152.515 25.0819 151.522 25.8149C150.74 26.4176 149.705 26.719 148.419 26.719C147.343 26.7027 146.382 26.4665 145.535 26.0104C144.705 25.5543 144.118 24.8865 143.776 24.0069L146.855 22.9074C147.115 23.4775 147.588 23.7625 148.272 23.7625C148.744 23.7625 149.103 23.6648 149.347 23.4693C149.608 23.2576 149.73 22.997 149.714 22.6875C149.697 22.2965 149.225 21.9871 148.296 21.759C148.166 21.7264 148.028 21.6939 147.881 21.6613C147.751 21.6124 147.62 21.5717 147.49 21.5391C146.953 21.4251 146.464 21.254 146.024 21.026C145.601 20.798 145.234 20.5129 144.925 20.1708C144.322 19.503 144.012 18.6967 143.996 17.7519C143.996 16.5466 144.428 15.6099 145.291 14.9421C146.171 14.2742 147.213 13.9322 148.419 13.9159C149.51 13.8996 150.43 14.1276 151.18 14.6C151.88 15.0398 152.409 15.6832 152.768 16.5303ZM158.421 14.2091V15.4308C158.486 15.3656 158.551 15.3004 158.617 15.2353C158.682 15.1538 158.755 15.0805 158.837 15.0154C159.667 14.2824 160.734 13.9159 162.037 13.9159C163.78 13.9159 165.23 14.5349 166.386 15.7728C167.527 17.0108 168.097 18.5257 168.097 20.3174C168.097 22.1092 167.527 23.6241 166.386 24.862C165.23 26.1 163.78 26.719 162.037 26.719C160.848 26.719 159.846 26.3688 159.032 25.6683C158.983 25.6358 158.934 25.595 158.885 25.5462C158.853 25.4973 158.812 25.4484 158.763 25.3996V31.3125H155.514V14.2091H158.421ZM161.744 23.4938C162.624 23.4938 163.357 23.1843 163.943 22.5653C164.513 21.9463 164.798 21.197 164.798 20.3174C164.798 19.4215 164.513 18.6641 163.943 18.0451C163.357 17.4424 162.624 17.1411 161.744 17.1411C160.881 17.1411 160.172 17.4424 159.618 18.0451C159.048 18.6641 158.763 19.4215 158.763 20.3174C158.763 21.197 159.048 21.9463 159.618 22.5653C160.172 23.1843 160.881 23.4938 161.744 23.4938ZM181.89 21.5391H173.412C173.493 21.7997 173.607 22.0441 173.754 22.2721C173.917 22.5002 174.104 22.6956 174.316 22.8585C174.837 23.2657 175.44 23.4693 176.124 23.4693C177.215 23.4693 178.071 23.1599 178.69 22.5409L180.962 24.862C179.74 26.1 178.128 26.719 176.124 26.719C174.365 26.719 172.858 26.0919 171.604 24.8376C170.333 23.5834 169.698 22.0766 169.698 20.3174C169.698 18.5419 170.309 17.0271 171.531 15.7728C172.72 14.5349 174.202 13.9159 175.977 13.9159C177.655 13.9159 179.072 14.5349 180.229 15.7728C181.337 16.9619 181.89 18.4768 181.89 20.3174V21.5391ZM175.904 17.0189C175.236 17.0189 174.658 17.2144 174.169 17.6053C173.778 17.9637 173.502 18.4035 173.339 18.9247H178.299C178.136 18.3546 177.867 17.8985 177.492 17.5565C177.069 17.1981 176.539 17.0189 175.904 17.0189ZM189.536 13.9159C191.279 13.9159 192.753 14.5349 193.959 15.7728L191.662 18.094C191.092 17.475 190.383 17.1655 189.536 17.1655C188.673 17.1655 187.956 17.475 187.386 18.094C186.816 18.6967 186.531 19.4378 186.531 20.3174C186.531 21.197 186.816 21.9382 187.386 22.5409C187.956 23.1599 188.673 23.4693 189.536 23.4693C190.383 23.4693 191.092 23.1599 191.662 22.5409L193.959 24.862C192.753 26.1 191.279 26.719 189.536 26.719C187.761 26.719 186.27 26.0919 185.065 24.8376C183.859 23.5997 183.257 22.0929 183.257 20.3174C183.257 18.5419 183.859 17.0271 185.065 15.7728C186.27 14.5349 187.761 13.9159 189.536 13.9159ZM196.9 10.3975H200.15V14.2091H203.302V17.4587H200.15V20.9771C200.15 21.5798 200.362 22.0929 200.785 22.5164C201.225 22.9562 201.746 23.1761 202.349 23.1761H203.302V26.4258H202.349C200.85 26.4258 199.564 25.8882 198.488 24.8132C197.43 23.7544 196.9 22.4757 196.9 20.9771V17.4587H194.946V14.2091H196.9V10.3975ZM205.791 26.4258V14.2091H209.065V26.4258H205.791ZM209.382 10.4219C209.382 10.9595 209.195 11.4155 208.82 11.7902C208.429 12.1811 207.965 12.3766 207.428 12.3766C206.906 12.3766 206.45 12.1811 206.059 11.7902C205.668 11.3993 205.473 10.9432 205.473 10.4219C205.473 9.88438 205.668 9.42015 206.059 9.02922C206.434 8.65457 206.89 8.46725 207.428 8.46725C207.981 8.46725 208.446 8.65457 208.82 9.02922C209.195 9.40386 209.382 9.86809 209.382 10.4219ZM211.083 14.2091H214.577L217.656 22.0033L220.735 14.2091H224.229L219.391 26.4258H215.921L211.083 14.2091ZM237.109 21.5391H228.63C228.712 21.7997 228.826 22.0441 228.973 22.2721C229.135 22.5002 229.323 22.6956 229.534 22.8585C230.056 23.2657 230.658 23.4693 231.343 23.4693C232.434 23.4693 233.289 23.1599 233.908 22.5409L236.18 24.862C234.959 26.1 233.346 26.719 231.343 26.719C229.583 26.719 228.077 26.0919 226.822 24.8376C225.552 23.5834 224.917 22.0766 224.917 20.3174C224.917 18.5419 225.527 17.0271 226.749 15.7728C227.938 14.5349 229.42 13.9159 231.196 13.9159C232.874 13.9159 234.291 14.5349 235.447 15.7728C236.555 16.9619 237.109 18.4768 237.109 20.3174V21.5391ZM231.123 17.0189C230.455 17.0189 229.877 17.2144 229.388 17.6053C228.997 17.9637 228.72 18.4035 228.557 18.9247H233.517C233.354 18.3546 233.085 17.8985 232.711 17.5565C232.287 17.1981 231.758 17.0189 231.123 17.0189Z" fill="white"/>
</g>
<defs>
<clipPath id="clip0_1090_1482">
<rect width="237" height="38" fill="white"/>
</clipPath>
</defs>
</svg>
