<svg width="184" height="30" viewBox="0 0 184 30" fill="none" xmlns="http://www.w3.org/2000/svg">
<g clip-path="url(#clip0_716_1489)">
<path d="M0 14.8354C0 6.68327 6.65966 0.0742188 14.8742 0.0742188C22.3321 0.0742188 28.5073 5.52008 29.5827 12.6236C29.6182 12.8566 29.4337 13.0642 29.196 13.0642H25.9737C25.7793 13.0642 25.6145 12.9242 25.577 12.7352C24.5914 7.76226 20.1743 4.01126 14.8742 4.01126C8.84995 4.01126 3.9662 8.85789 3.9662 14.8364C3.9662 15.6275 4.05203 16.3981 4.21384 17.1412C4.25824 17.3439 4.20003 17.5564 4.05203 17.7033L1.57957 20.1569C1.38028 20.3547 1.04384 20.2891 0.944192 20.0277C0.334463 18.4112 0 16.6615 0 14.8354Z" fill="white"/>
<path d="M19.8316 9.125C20.2696 9.125 20.6248 9.47748 20.6248 9.91221V19.7533C20.6248 20.1881 20.2696 20.5405 19.8316 20.5405H17.6502C17.2121 20.5405 16.8569 20.1881 16.8569 19.7533V16.5702C16.8569 16.2197 16.4297 16.0435 16.1801 16.2921L9.17907 23.24C8.91663 23.5004 8.9561 23.9342 9.27379 24.1241C10.9106 25.0983 12.8266 25.6574 14.8738 25.6574C20.0378 25.6574 24.3641 22.0954 25.4938 17.3124C25.5372 17.1303 25.699 16.9981 25.8874 16.9981H29.1294C29.3712 16.9981 29.5576 17.2115 29.5152 17.4485C28.2711 24.3532 22.1896 29.5945 14.8738 29.5945C10.3087 29.5945 6.22317 27.553 3.49518 24.3405C3.23866 24.0389 3.27023 23.5944 3.55141 23.3154L13.4038 13.5379C13.6534 13.2902 13.4768 12.8662 13.1236 12.8662H9.91607C9.47802 12.8662 9.12284 12.5137 9.12284 12.079V9.91417C9.12284 9.47944 9.47802 9.12696 9.91607 9.12696H19.8326L19.8316 9.125Z" fill="#F47E51"/>
<path d="M52.8234 7.12378H55.5171L51.7991 20.4023H49.1244L46.7153 11.961L44.3251 20.4023H41.6694L37.9135 7.12378H40.5882L42.9973 15.5841L45.3684 7.12378H48.0621L50.4522 15.5841L52.8234 7.12378ZM65.0466 16.6085H58.4643C58.5275 16.8108 58.616 17.0005 58.7298 17.1776C58.8563 17.3546 59.0017 17.5064 59.1661 17.6328C59.5708 17.949 60.0387 18.107 60.5699 18.107C61.4172 18.107 62.0811 17.8668 62.5617 17.3862L64.3258 19.1883C63.3773 20.1494 62.1254 20.63 60.5699 20.63C59.2041 20.63 58.0343 20.1431 57.0605 19.1693C56.0741 18.1956 55.5809 17.0258 55.5809 15.66C55.5809 14.2816 56.0552 13.1055 57.0036 12.1317C57.9268 11.1706 59.0776 10.69 60.4561 10.69C61.7586 10.69 62.8588 11.1706 63.7567 12.1317C64.6167 13.0549 65.0466 14.231 65.0466 15.66V16.6085ZM60.3991 13.0991C59.8806 13.0991 59.4317 13.2509 59.0523 13.5544C58.7488 13.8326 58.5338 14.1741 58.4074 14.5787H62.2581C62.1317 14.1361 61.923 13.782 61.6322 13.5165C61.3034 13.2382 60.8923 13.0991 60.3991 13.0991ZM71.4568 13.194C70.7866 13.194 70.2364 13.4279 69.8065 13.8958C69.5915 14.1361 69.4271 14.4017 69.3133 14.6926C69.1995 14.9834 69.1425 15.3059 69.1425 15.66C69.1425 16.0014 69.1995 16.3239 69.3133 16.6274C69.4271 16.9183 69.5915 17.1775 69.8065 17.4052C70.2364 17.8857 70.7866 18.126 71.4568 18.126C72.1397 18.126 72.7088 17.8857 73.1641 17.4052C73.6067 16.9246 73.828 16.3429 73.828 15.66C73.828 14.9645 73.6067 14.3764 73.1641 13.8958C72.7088 13.4279 72.1397 13.194 71.4568 13.194ZM71.6844 10.69C73.0376 10.69 74.1631 11.1706 75.061 12.1317C75.9462 13.0928 76.3888 14.2689 76.3888 15.66C76.3888 17.0511 75.9462 18.2272 75.061 19.1883C74.1631 20.1494 73.0376 20.63 71.6844 20.63C70.6474 20.63 69.8001 20.3265 69.1425 19.7194C69.092 19.6815 69.0414 19.6436 68.9908 19.6056C68.9529 19.555 68.9149 19.5045 68.877 19.4539V20.4023H66.6196V7.12378H69.1425V11.7144C69.2058 11.6638 69.2627 11.6132 69.3133 11.5626C69.3765 11.512 69.4334 11.4678 69.484 11.4298C70.0784 10.9366 70.8118 10.69 71.6844 10.69ZM85.721 9.64671V13.5354H88.225C88.7435 13.5354 89.1988 13.3394 89.5908 12.9474C89.9702 12.568 90.1599 12.1191 90.1599 11.6006C90.1599 11.0694 89.9702 10.6141 89.5908 10.2348C89.1988 9.84273 88.7435 9.64671 88.225 9.64671H85.721ZM83.1791 7.12378H88.225C89.4643 7.12378 90.5203 7.56008 91.3929 8.43267C92.2655 9.30526 92.7018 10.3612 92.7018 11.6006C92.7018 12.8272 92.2655 13.8769 91.3929 14.7495C90.5076 15.6221 89.4517 16.0584 88.225 16.0584H85.721V20.4023H83.1791V7.12378ZM103.133 16.6085H96.5505C96.6137 16.8108 96.7022 17.0005 96.816 17.1776C96.9425 17.3546 97.0879 17.5064 97.2523 17.6328C97.657 17.949 98.1249 18.107 98.6561 18.107C99.5034 18.107 100.167 17.8668 100.648 17.3862L102.412 19.1883C101.464 20.1494 100.212 20.63 98.6561 20.63C97.2903 20.63 96.1205 20.1431 95.1467 19.1693C94.1603 18.1956 93.6671 17.0258 93.6671 15.66C93.6671 14.2816 94.1414 13.1055 95.0898 12.1317C96.013 11.1706 97.1638 10.69 98.5423 10.69C99.8448 10.69 100.945 11.1706 101.843 12.1317C102.703 13.0549 103.133 14.231 103.133 15.66V16.6085ZM98.4853 13.0991C97.9669 13.0991 97.5179 13.2509 97.1385 13.5544C96.835 13.8326 96.62 14.1741 96.4936 14.5787H100.344C100.218 14.1361 100.009 13.782 99.7184 13.5165C99.3896 13.2382 98.9786 13.0991 98.4853 13.0991ZM104.706 10.9177H107.077V12.2265C107.128 12.176 107.172 12.1254 107.21 12.0748C107.26 12.0242 107.311 11.9736 107.362 11.923C107.665 11.6322 108 11.3919 108.367 11.2022C109.012 10.8607 109.752 10.69 110.586 10.69V13.213C109.726 13.213 108.987 13.4659 108.367 13.9717C107.76 14.4649 107.381 15.1668 107.229 16.0773V20.4023H104.706V10.9177ZM118.609 12.7197L116.238 13.5354C116.162 13.3457 116.036 13.2003 115.858 13.0991C115.694 12.998 115.498 12.9474 115.27 12.9474C114.98 12.9474 114.752 13.0169 114.588 13.156C114.41 13.2952 114.328 13.4722 114.341 13.6872C114.354 13.978 114.644 14.1867 115.214 14.3132C115.353 14.3385 115.479 14.3638 115.593 14.3891C115.707 14.4143 115.802 14.4396 115.877 14.4649C116.674 14.642 117.306 14.9328 117.774 15.3375C118.47 15.9319 118.818 16.6907 118.818 17.6138C118.805 18.5876 118.413 19.359 117.642 19.9281C117.035 20.396 116.232 20.63 115.232 20.63C114.398 20.6173 113.652 20.434 112.994 20.0799C112.349 19.7258 111.894 19.2073 111.628 18.5244L114.018 17.6708C114.221 18.1134 114.588 18.3347 115.119 18.3347C115.485 18.3347 115.764 18.2588 115.953 18.107C116.156 17.9426 116.251 17.7403 116.238 17.5C116.225 17.1965 115.858 16.9562 115.138 16.7792C115.036 16.7539 114.929 16.7286 114.815 16.7033C114.714 16.6654 114.613 16.6338 114.512 16.6085C114.094 16.5199 113.715 16.3872 113.373 16.2101C113.045 16.0331 112.76 15.8118 112.52 15.5462C112.052 15.0277 111.812 14.4017 111.799 13.6682C111.799 12.7324 112.134 12.0052 112.804 11.4867C113.487 10.9682 114.297 10.7027 115.232 10.69C116.08 10.6774 116.794 10.8544 117.376 11.2212C117.92 11.5626 118.331 12.0621 118.609 12.7197ZM122.998 10.9177V11.8661C123.049 11.8155 123.099 11.765 123.15 11.7144C123.201 11.6511 123.257 11.5942 123.321 11.5436C123.966 10.9746 124.794 10.69 125.806 10.69C127.159 10.69 128.284 11.1706 129.182 12.1317C130.067 13.0928 130.51 14.2689 130.51 15.66C130.51 17.0511 130.067 18.2272 129.182 19.1883C128.284 20.1494 127.159 20.63 125.806 20.63C124.883 20.63 124.105 20.3581 123.472 19.8143C123.435 19.789 123.397 19.7574 123.359 19.7194C123.333 19.6815 123.302 19.6436 123.264 19.6056V24.1962H120.741V10.9177H122.998ZM125.578 18.126C126.261 18.126 126.83 17.8857 127.285 17.4052C127.728 16.9246 127.949 16.3429 127.949 15.66C127.949 14.9645 127.728 14.3764 127.285 13.8958C126.83 13.4279 126.261 13.194 125.578 13.194C124.908 13.194 124.358 13.4279 123.928 13.8958C123.485 14.3764 123.264 14.9645 123.264 15.66C123.264 16.3429 123.485 16.9246 123.928 17.4052C124.358 17.8857 124.908 18.126 125.578 18.126ZM141.219 16.6085H134.637C134.7 16.8108 134.788 17.0005 134.902 17.1776C135.029 17.3546 135.174 17.5064 135.339 17.6328C135.743 17.949 136.211 18.107 136.742 18.107C137.59 18.107 138.253 17.8668 138.734 17.3862L140.498 19.1883C139.55 20.1494 138.298 20.63 136.742 20.63C135.376 20.63 134.207 20.1431 133.233 19.1693C132.247 18.1956 131.753 17.0258 131.753 15.66C131.753 14.2816 132.228 13.1055 133.176 12.1317C134.099 11.1706 135.25 10.69 136.628 10.69C137.931 10.69 139.031 11.1706 139.929 12.1317C140.789 13.0549 141.219 14.231 141.219 15.66V16.6085ZM136.572 13.0991C136.053 13.0991 135.604 13.2509 135.225 13.5544C134.921 13.8326 134.706 14.1741 134.58 14.5787H138.431C138.304 14.1361 138.095 13.782 137.805 13.5165C137.476 13.2382 137.065 13.0991 136.572 13.0991ZM147.155 10.69C148.508 10.69 149.653 11.1706 150.588 12.1317L148.805 13.9338C148.363 13.4532 147.813 13.213 147.155 13.213C146.485 13.213 145.928 13.4532 145.486 13.9338C145.043 14.4017 144.822 14.9771 144.822 15.66C144.822 16.3429 145.043 16.9183 145.486 17.3862C145.928 17.8668 146.485 18.107 147.155 18.107C147.813 18.107 148.363 17.8668 148.805 17.3862L150.588 19.1883C149.653 20.1494 148.508 20.63 147.155 20.63C145.777 20.63 144.619 20.1431 143.684 19.1693C142.748 18.2082 142.28 17.0384 142.28 15.66C142.28 14.2816 142.748 13.1055 143.684 12.1317C144.619 11.1706 145.777 10.69 147.155 10.69ZM152.872 7.95843H155.395V10.9177H157.842V13.4406H155.395V16.1722C155.395 16.6401 155.56 17.0384 155.888 17.3672C156.23 17.7087 156.635 17.8794 157.102 17.8794H157.842V20.4023H157.102C155.939 20.4023 154.94 19.985 154.105 19.1504C153.283 18.3284 152.872 17.3356 152.872 16.1722V13.4406H151.355V10.9177H152.872V7.95843ZM159.774 20.4023V10.9177H162.316V20.4023H159.774ZM162.563 7.9774C162.563 8.39473 162.418 8.74882 162.127 9.03969C161.823 9.3432 161.463 9.49495 161.045 9.49495C160.641 9.49495 160.287 9.3432 159.983 9.03969C159.68 8.73618 159.528 8.38208 159.528 7.9774C159.528 7.56008 159.68 7.19966 159.983 6.89615C160.274 6.60529 160.628 6.45985 161.045 6.45985C161.475 6.45985 161.836 6.60529 162.127 6.89615C162.418 7.18701 162.563 7.54743 162.563 7.9774ZM163.884 10.9177H166.596L168.987 16.9689L171.377 10.9177H174.089L170.333 20.4023H167.64L163.884 10.9177ZM184.089 16.6085H177.507C177.57 16.8108 177.658 17.0005 177.772 17.1776C177.899 17.3546 178.044 17.5064 178.209 17.6328C178.613 17.949 179.081 18.107 179.612 18.107C180.46 18.107 181.124 17.8668 181.604 17.3862L183.368 19.1883C182.42 20.1494 181.168 20.63 179.612 20.63C178.247 20.63 177.077 20.1431 176.103 19.1693C175.117 18.1956 174.623 17.0258 174.623 15.66C174.623 14.2816 175.098 13.1055 176.046 12.1317C176.969 11.1706 178.12 10.69 179.498 10.69C180.801 10.69 181.901 11.1706 182.799 12.1317C183.659 13.0549 184.089 14.231 184.089 15.66V16.6085ZM179.442 13.0991C178.923 13.0991 178.474 13.2509 178.095 13.5544C177.791 13.8326 177.576 14.1741 177.45 14.5787H181.301C181.174 14.1361 180.965 13.782 180.675 13.5165C180.346 13.2382 179.935 13.0991 179.442 13.0991Z" fill="#F48960"/>
</g>
<defs>
<clipPath id="clip0_716_1489">
<rect width="184" height="29.5224" fill="white" transform="translate(0 0.0742188)"/>
</clipPath>
</defs>
</svg>
