<svg width="237" height="39" viewBox="0 0 237 39" fill="none" xmlns="http://www.w3.org/2000/svg">
<g clip-path="url(#clip0_726_2785)">
<path d="M0 19.4844C0 8.99127 8.57793 0.484375 19.1587 0.484375C28.7647 0.484375 36.7186 7.49406 38.1038 16.6374C38.1496 16.9373 37.9119 17.2045 37.6057 17.2045H33.4552C33.2049 17.2045 32.9926 17.0243 32.9443 16.7811C31.6748 10.3801 25.9854 5.55197 19.1587 5.55197C11.3991 5.55197 5.10864 11.7904 5.10864 19.4856C5.10864 20.5039 5.2192 21.4958 5.42761 22.4523C5.48479 22.7132 5.40982 22.9867 5.2192 23.1757L2.03456 26.334C1.77786 26.5886 1.34451 26.5041 1.21616 26.1676C0.430803 24.0869 0 21.8348 0 19.4844Z" fill="#2F3338"/>
<path d="M25.5446 12.1328C26.1088 12.1328 26.5663 12.5865 26.5663 13.1461V25.8132C26.5663 26.3727 26.1088 26.8264 25.5446 26.8264H22.7348C22.1706 26.8264 21.7131 26.3727 21.7131 25.8132V21.716C21.7131 21.2648 21.1628 21.038 20.8413 21.3581L11.8237 30.301C11.4856 30.6363 11.5365 31.1946 11.9457 31.4391C14.0539 32.693 16.5218 33.4127 19.1588 33.4127C25.8102 33.4127 31.3826 28.8278 32.8377 22.6713C32.8936 22.4369 33.102 22.2667 33.3448 22.2667H37.5206C37.832 22.2667 38.0722 22.5415 38.0175 22.8465C36.415 31.734 28.5818 38.4803 19.1588 38.4803C13.2788 38.4803 8.01635 35.8526 4.50257 31.7176C4.17217 31.3294 4.21283 30.7572 4.57501 30.3981L17.2653 17.8129C17.5868 17.494 17.3593 16.9483 16.9044 16.9483H12.773C12.2087 16.9483 11.7512 16.4946 11.7512 15.9351V13.1486C11.7512 12.589 12.2087 12.1353 12.773 12.1353H25.5458L25.5446 12.1328Z" fill="#F47E51"/>
<path d="M68.0368 9.80679H71.5064L66.7174 26.9102H63.2723L60.1693 16.0373L57.0907 26.9102H53.67L48.8322 9.80679H52.2773L55.3803 20.7041L58.4345 9.80679H61.904L64.9826 20.7041L68.0368 9.80679ZM83.7809 22.0235H75.3025C75.3839 22.2841 75.498 22.5284 75.6446 22.7565C75.8075 22.9845 75.9948 23.18 76.2065 23.3429C76.7278 23.7501 77.3305 23.9537 78.0146 23.9537C79.106 23.9537 79.9611 23.6442 80.5801 23.0252L82.8524 25.3464C81.6308 26.5844 80.0181 27.2034 78.0146 27.2034C76.2554 27.2034 74.7487 26.5762 73.4944 25.322C72.2239 24.0677 71.5886 22.561 71.5886 20.8018C71.5886 19.0263 72.1995 17.5114 73.4211 16.2572C74.6102 15.0192 76.0925 14.4003 77.868 14.4003C79.5458 14.4003 80.9629 15.0192 82.1194 16.2572C83.2271 17.4463 83.7809 18.9612 83.7809 20.8018V22.0235ZM77.7947 17.5033C77.1269 17.5033 76.5486 17.6988 76.0599 18.0897C75.669 18.4481 75.3921 18.8879 75.2292 19.4091H80.1892C80.0263 18.839 79.7575 18.3829 79.3829 18.0408C78.9594 17.6825 78.43 17.5033 77.7947 17.5033ZM92.0375 17.6255C91.1741 17.6255 90.4656 17.9268 89.9118 18.5295C89.6348 18.839 89.4231 19.1811 89.2765 19.5557C89.1299 19.9304 89.0566 20.3457 89.0566 20.8018C89.0566 21.2416 89.1299 21.657 89.2765 22.0479C89.4231 22.4226 89.6348 22.7565 89.9118 23.0497C90.4656 23.6687 91.1741 23.9782 92.0375 23.9782C92.9171 23.9782 93.6501 23.6687 94.2365 23.0497C94.8066 22.4307 95.0916 21.6814 95.0916 20.8018C95.0916 19.9059 94.8066 19.1485 94.2365 18.5295C93.6501 17.9268 92.9171 17.6255 92.0375 17.6255ZM92.3307 14.4003C94.0736 14.4003 95.5233 15.0192 96.6798 16.2572C97.82 17.4952 98.3901 19.01 98.3901 20.8018C98.3901 22.5936 97.82 24.1085 96.6798 25.3464C95.5233 26.5844 94.0736 27.2034 92.3307 27.2034C90.995 27.2034 89.9036 26.8124 89.0566 26.0306C88.9914 25.9817 88.9263 25.9328 88.8611 25.884C88.8123 25.8188 88.7634 25.7536 88.7145 25.6885V26.9102H85.8069V9.80679H89.0566V15.7197C89.138 15.6545 89.2113 15.5894 89.2765 15.5242C89.3579 15.459 89.4312 15.402 89.4964 15.3532C90.262 14.7179 91.2067 14.4003 92.3307 14.4003ZM110.41 13.0564V18.0653H113.636C114.303 18.0653 114.89 17.8128 115.395 17.3078C115.883 16.8192 116.128 16.2409 116.128 15.5731C116.128 14.8889 115.883 14.3025 115.395 13.8139C114.89 13.3089 114.303 13.0564 113.636 13.0564H110.41ZM107.136 9.80679H113.636C115.232 9.80679 116.592 10.3688 117.716 11.4927C118.84 12.6166 119.402 13.9768 119.402 15.5731C119.402 17.1531 118.84 18.5051 117.716 19.629C116.576 20.7529 115.216 21.3149 113.636 21.3149H110.41V26.9102H107.136V9.80679ZM132.838 22.0235H124.359C124.441 22.2841 124.555 22.5284 124.701 22.7565C124.864 22.9845 125.051 23.18 125.263 23.3429C125.784 23.7501 126.387 23.9537 127.071 23.9537C128.163 23.9537 129.018 23.6442 129.637 23.0252L131.909 25.3464C130.687 26.5844 129.075 27.2034 127.071 27.2034C125.312 27.2034 123.805 26.5762 122.551 25.322C121.281 24.0677 120.645 22.561 120.645 20.8018C120.645 19.0263 121.256 17.5114 122.478 16.2572C123.667 15.0192 125.149 14.4003 126.925 14.4003C128.602 14.4003 130.02 15.0192 131.176 16.2572C132.284 17.4463 132.838 18.9612 132.838 20.8018V22.0235ZM126.851 17.5033C126.184 17.5033 125.605 17.6988 125.117 18.0897C124.726 18.4481 124.449 18.8879 124.286 19.4091H129.246C129.083 18.839 128.814 18.3829 128.44 18.0408C128.016 17.6825 127.487 17.5033 126.851 17.5033ZM134.864 14.6935H137.918V16.3794C137.983 16.3142 138.04 16.2491 138.089 16.1839C138.154 16.1187 138.219 16.0536 138.284 15.9884C138.675 15.6138 139.107 15.3043 139.579 15.06C140.41 14.6202 141.363 14.4003 142.438 14.4003V17.6499C141.33 17.6499 140.377 17.9757 139.579 18.6272C138.797 19.2625 138.309 20.1665 138.113 21.3393V26.9102H134.864V14.6935ZM152.772 17.0146L149.717 18.0653C149.62 17.8209 149.457 17.6336 149.229 17.5033C149.017 17.373 148.765 17.3078 148.471 17.3078C148.097 17.3078 147.803 17.3974 147.592 17.5766C147.364 17.7558 147.258 17.9838 147.274 18.2607C147.29 18.6354 147.665 18.9042 148.398 19.067C148.577 19.0996 148.74 19.1322 148.887 19.1648C149.033 19.1974 149.155 19.2299 149.253 19.2625C150.279 19.4906 151.094 19.8652 151.697 20.3864C152.592 21.152 153.04 22.1294 153.04 23.3184C153.024 24.5727 152.519 25.5663 151.525 26.2993C150.744 26.902 149.709 27.2034 148.422 27.2034C147.347 27.1871 146.386 26.9509 145.539 26.4948C144.709 26.0387 144.122 25.3709 143.78 24.4913L146.859 23.3917C147.119 23.9619 147.592 24.2469 148.276 24.2469C148.748 24.2469 149.107 24.1492 149.351 23.9537C149.612 23.742 149.734 23.4813 149.717 23.1718C149.701 22.7809 149.229 22.4714 148.3 22.2434C148.17 22.2108 148.032 22.1782 147.885 22.1456C147.755 22.0968 147.624 22.0561 147.494 22.0235C146.956 21.9095 146.468 21.7384 146.028 21.5104C145.604 21.2823 145.238 20.9973 144.928 20.6552C144.326 19.9874 144.016 19.1811 144 18.2363C144 17.0309 144.432 16.0943 145.295 15.4265C146.175 14.7586 147.217 14.4166 148.422 14.4003C149.514 14.384 150.434 14.612 151.183 15.0844C151.884 15.5242 152.413 16.1676 152.772 17.0146ZM158.425 14.6935V15.9151C158.49 15.85 158.555 15.7848 158.621 15.7197C158.686 15.6382 158.759 15.5649 158.84 15.4998C159.671 14.7668 160.738 14.4003 162.041 14.4003C163.784 14.4003 165.234 15.0192 166.39 16.2572C167.531 17.4952 168.101 19.01 168.101 20.8018C168.101 22.5936 167.531 24.1085 166.39 25.3464C165.234 26.5844 163.784 27.2034 162.041 27.2034C160.852 27.2034 159.85 26.8531 159.036 26.1527C158.987 26.1201 158.938 26.0794 158.889 26.0306C158.857 25.9817 158.816 25.9328 158.767 25.884V31.7968H155.517V14.6935H158.425ZM161.748 23.9782C162.628 23.9782 163.361 23.6687 163.947 23.0497C164.517 22.4307 164.802 21.6814 164.802 20.8018C164.802 19.9059 164.517 19.1485 163.947 18.5295C163.361 17.9268 162.628 17.6255 161.748 17.6255C160.885 17.6255 160.176 17.9268 159.622 18.5295C159.052 19.1485 158.767 19.9059 158.767 20.8018C158.767 21.6814 159.052 22.4307 159.622 23.0497C160.176 23.6687 160.885 23.9782 161.748 23.9782ZM181.894 22.0235H173.416C173.497 22.2841 173.611 22.5284 173.758 22.7565C173.921 22.9845 174.108 23.18 174.32 23.3429C174.841 23.7501 175.444 23.9537 176.128 23.9537C177.219 23.9537 178.075 23.6442 178.693 23.0252L180.966 25.3464C179.744 26.5844 178.132 27.2034 176.128 27.2034C174.369 27.2034 172.862 26.5762 171.608 25.322C170.337 24.0677 169.702 22.561 169.702 20.8018C169.702 19.0263 170.313 17.5114 171.535 16.2572C172.724 15.0192 174.206 14.4003 175.981 14.4003C177.659 14.4003 179.076 15.0192 180.233 16.2572C181.34 17.4463 181.894 18.9612 181.894 20.8018V22.0235ZM175.908 17.5033C175.24 17.5033 174.662 17.6988 174.173 18.0897C173.782 18.4481 173.505 18.8879 173.343 19.4091H178.303C178.14 18.839 177.871 18.3829 177.496 18.0408C177.073 17.6825 176.543 17.5033 175.908 17.5033ZM189.54 14.4003C191.283 14.4003 192.757 15.0192 193.962 16.2572L191.666 18.5784C191.096 17.9594 190.387 17.6499 189.54 17.6499C188.677 17.6499 187.96 17.9594 187.39 18.5784C186.82 19.1811 186.535 19.9222 186.535 20.8018C186.535 21.6814 186.82 22.4226 187.39 23.0252C187.96 23.6442 188.677 23.9537 189.54 23.9537C190.387 23.9537 191.096 23.6442 191.666 23.0252L193.962 25.3464C192.757 26.5844 191.283 27.2034 189.54 27.2034C187.764 27.2034 186.274 26.5762 185.069 25.322C183.863 24.084 183.261 22.5773 183.261 20.8018C183.261 19.0263 183.863 17.5114 185.069 16.2572C186.274 15.0192 187.764 14.4003 189.54 14.4003ZM196.904 10.8819H200.154V14.6935H203.306V17.9431H200.154V21.4615C200.154 22.0642 200.366 22.5773 200.789 23.0008C201.229 23.4406 201.75 23.6605 202.353 23.6605H203.306V26.9102H202.353C200.854 26.9102 199.567 26.3726 198.492 25.2976C197.434 24.2388 196.904 22.9601 196.904 21.4615V17.9431H194.95V14.6935H196.904V10.8819ZM205.794 26.9102V14.6935H209.069V26.9102H205.794ZM209.386 10.9063C209.386 11.4438 209.199 11.8999 208.824 12.2746C208.433 12.6655 207.969 12.861 207.432 12.861C206.91 12.861 206.454 12.6655 206.063 12.2746C205.672 11.8836 205.477 11.4275 205.477 10.9063C205.477 10.3688 205.672 9.90452 206.063 9.51359C206.438 9.13895 206.894 8.95162 207.432 8.95162C207.985 8.95162 208.45 9.13895 208.824 9.51359C209.199 9.88824 209.386 10.3525 209.386 10.9063ZM211.087 14.6935H214.581L217.66 22.4877L220.739 14.6935H224.233L219.395 26.9102H215.925L211.087 14.6935ZM237.113 22.0235H228.634C228.716 22.2841 228.83 22.5284 228.976 22.7565C229.139 22.9845 229.327 23.18 229.538 23.3429C230.06 23.7501 230.662 23.9537 231.346 23.9537C232.438 23.9537 233.293 23.6442 233.912 23.0252L236.184 25.3464C234.963 26.5844 233.35 27.2034 231.346 27.2034C229.587 27.2034 228.081 26.5762 226.826 25.322C225.556 24.0677 224.92 22.561 224.92 20.8018C224.92 19.0263 225.531 17.5114 226.753 16.2572C227.942 15.0192 229.424 14.4003 231.2 14.4003C232.878 14.4003 234.295 15.0192 235.451 16.2572C236.559 17.4463 237.113 18.9612 237.113 20.8018V22.0235ZM231.127 17.5033C230.459 17.5033 229.88 17.6988 229.392 18.0897C229.001 18.4481 228.724 18.8879 228.561 19.4091H233.521C233.358 18.839 233.089 18.3829 232.715 18.0408C232.291 17.6825 231.762 17.5033 231.127 17.5033Z" fill="#2F3338"/>
</g>
<defs>
<clipPath id="clip0_726_2785">
<rect width="237" height="38" fill="white" transform="translate(0 0.484375)"/>
</clipPath>
</defs>
</svg>
