<svg width="50" height="50" viewBox="0 0 50 50" fill="none" xmlns="http://www.w3.org/2000/svg">
<path d="M13.2525 23.509C12.5033 23.509 11.8984 22.9041 11.8984 22.1549C11.8984 21.4056 12.5033 20.8008 13.2525 20.8008C14.0018 20.8008 14.6066 21.4056 14.6066 22.1549C14.6066 22.9041 14.0018 23.509 13.2525 23.509Z" fill="#2F3338"/>
<path d="M17.7682 23.509C17.0189 23.509 16.4141 22.9041 16.4141 22.1549C16.4141 21.4056 17.0189 20.8008 17.7682 20.8008C18.5174 20.8008 19.1222 21.4056 19.1222 22.1549C19.1222 22.9041 18.5174 23.509 17.7682 23.509Z" fill="#2F3338"/>
<path d="M20.9219 22.1549C20.9219 22.9041 21.5267 23.509 22.276 23.509C23.0252 23.509 23.6301 22.9041 23.6301 22.1549C23.6301 21.4056 23.0252 20.8008 22.276 20.8008C21.5267 20.8008 20.9219 21.4056 20.9219 22.1549Z" fill="#2F3338"/>
<path d="M4.32949 12.3295C4.54163 12.1174 4.82599 12 5.12841 12H29.9534C30.5762 12 31.0818 12.5055 31.0818 13.1284V31.1829C31.0818 31.4808 30.9644 31.7697 30.7523 31.9818C30.5401 32.194 30.2558 32.3113 29.9534 32.3113H13.3161L6.94287 37.4839C5.76481 38.4408 4 37.6013 4 36.0802V13.1284C4 12.8305 4.11735 12.5416 4.32949 12.3295ZM6.25681 35.1323L12.2013 30.3073C12.4044 30.1448 12.6526 30.0545 12.9144 30.0545H28.825V14.2568H6.25681V35.1323Z" fill="#2F3338"/>
<path d="M36.8284 21.6143C36.3905 21.1719 36.3905 20.4588 36.8284 20.0164L40.4528 16.392C40.665 16.1799 40.9538 16.0625 41.2517 16.0625C41.5496 16.0625 41.8385 16.1799 42.0506 16.392L45.6751 20.0164C46.1129 20.4588 46.1129 21.1719 45.6751 21.6143C45.2328 22.0566 44.5196 22.0566 44.0773 21.6143L42.3801 19.9171V31.1832C42.3801 31.806 41.8746 32.3116 41.2517 32.3116C40.6288 32.3116 40.1233 31.806 40.1233 31.1832V19.9171L38.4262 21.6143C37.9838 22.0566 37.2707 22.0566 36.8284 21.6143Z" fill="#2F3338"/>
</svg>
