<svg width="50" height="50" viewBox="0 0 50 50" fill="none" xmlns="http://www.w3.org/2000/svg">
<path d="M25.2482 9C20.7923 9 17.1797 12.6126 17.1797 17.0685C17.1797 21.5244 20.7923 25.1371 25.2482 25.1371C29.7041 25.1371 33.3167 21.5244 33.3167 17.0685C33.3167 12.6126 29.7041 9 25.2482 9ZM19.7824 17.0685C19.7824 14.0493 22.229 11.6028 25.2482 11.6028C28.2674 11.6028 30.714 14.0493 30.714 17.0685C30.714 20.0877 28.2674 22.5343 25.2482 22.5343C22.229 22.5343 19.7824 20.0877 19.7824 17.0685Z" fill="#2F3338"/>
<path d="M25.2457 27.2188C21.8621 27.2188 18.6191 28.5618 16.2297 30.9563C13.8352 33.3456 12.4922 36.5939 12.4922 39.9722C12.4922 40.3158 12.6275 40.6489 12.8722 40.8936C13.1168 41.1383 13.4448 41.2736 13.7936 41.2736H36.6978C37.0413 41.2736 37.3745 41.1383 37.6191 40.8936C37.8638 40.6489 37.9991 40.321 37.9991 39.9722C37.9991 36.5887 36.6561 33.3456 34.2616 30.9563C31.8723 28.567 28.624 27.2188 25.2457 27.2188ZM18.0673 32.7938C19.9725 30.8886 22.5544 29.8215 25.2457 29.8215C27.9369 29.8215 30.5188 30.8886 32.424 32.7938C34.0169 34.3867 35.0268 36.4585 35.3131 38.6709H15.1782C15.4645 36.4585 16.4744 34.3867 18.0673 32.7938Z" fill="#2F3338"/>
<path d="M15.46 21.3483C14.5543 22.3998 13.2112 23.0557 11.712 23.0557C8.97915 23.0557 6.76681 20.8434 6.76681 18.1105C6.76681 15.3776 8.97915 13.1653 11.712 13.1653C12.9405 13.1653 14.0597 13.4672 14.9238 14.2064C15.1581 13.3266 15.4964 12.6291 15.9337 11.8535C14.726 11.0362 13.2737 10.5625 11.712 10.5625C7.54243 10.5625 4.16406 13.9409 4.16406 18.1105C4.16406 22.2801 7.54243 25.6585 11.712 25.6585C13.6953 25.6585 15.4964 24.8932 16.8447 23.6439C16.2929 22.9412 15.8244 22.1812 15.4652 21.3483H15.46Z" fill="#2F3338"/>
<path d="M15.2521 28.3109C14.1173 27.9361 12.9253 27.7383 11.7124 27.7383C8.58387 27.7383 5.60111 29.0449 3.4096 31.3457C1.21808 33.6465 0 36.749 0 39.9712C0 40.3148 0.135333 40.6479 0.379991 40.8926C0.62465 41.1372 0.952607 41.2726 1.30138 41.2726H10.1143C9.96853 40.8666 9.89045 40.4293 9.89045 39.9712C9.89045 39.5131 9.91127 39.1019 9.94771 38.6698H2.68603C2.95671 36.5824 3.86768 34.6356 5.29399 33.1364C7.0066 31.3353 9.31785 30.341 11.7124 30.341C12.2069 30.341 12.7014 30.3827 13.1855 30.466C13.5603 29.9923 13.9612 29.5394 14.388 29.1125C14.6691 28.8314 14.9554 28.566 15.2521 28.3109Z" fill="#2F3338"/>
<path d="M39.4217 19.8061C38.9115 20.3163 38.9115 21.1387 39.4217 21.6489C39.9318 22.159 40.7543 22.159 41.2644 21.6489L43.2217 19.6916V32.6845C43.2217 33.4029 43.8047 33.9859 44.5231 33.9859C45.2414 33.9859 45.8244 33.4029 45.8244 32.6845V19.6916L47.7817 21.6489C48.2918 22.159 49.1143 22.159 49.6193 21.6489C50.1294 21.1387 50.1294 20.3163 49.6193 19.8061L45.4392 15.6261C45.1946 15.3814 44.8666 15.2461 44.5178 15.2461C44.1691 15.2461 43.8411 15.3814 43.5965 15.6261L39.4165 19.8061H39.4217Z" fill="#2F3338"/>
</svg>
