<svg width="37" height="36" viewBox="0 0 37 36" fill="none" xmlns="http://www.w3.org/2000/svg">
<path d="M10.0376 25.2835L8.06395 25.8173L4.44531 12.1889L26.5024 6.22417L28.7499 14.6897M10.0376 25.2835V28.7988H32.8727V14.6897H28.7499M10.0376 25.2835V14.6897H14.4981M28.7499 14.6897H20.518M14.4981 14.6897H20.518M14.4981 14.6897C14.8752 13.7821 15.649 13.0543 16.6636 12.78C18.261 12.3478 19.8993 13.1905 20.518 14.6897M24.9502 21.7442C24.9502 23.5623 23.49 25.0364 21.6882 25.0364C19.8864 25.0364 18.4261 23.5623 18.4261 21.7442C18.4261 19.9262 19.8864 18.4521 21.6882 18.4521C23.49 18.4521 24.9502 19.9262 24.9502 21.7442Z" stroke="#2F3338" stroke-width="2.09025" stroke-linejoin="round"/>
</svg>
