<svg width="37" height="36" viewBox="0 0 37 36" fill="none" xmlns="http://www.w3.org/2000/svg">
<path d="M20.7496 4.83636C20.0494 3.18736 17.7103 3.18736 17.0101 4.83636L13.7324 12.5689L5.34536 13.2792C3.55937 13.4315 2.82875 15.6589 4.18854 16.836L10.5562 22.3564L8.64336 30.5557C8.23746 32.3062 10.13 33.6812 11.6674 32.7527L18.8723 28.4044L26.0822 32.7527C27.6196 33.6812 29.5172 32.3011 29.1062 30.5557L27.1933 22.3564L33.561 16.836C34.9157 15.6589 34.1902 13.4315 32.4042 13.2792L24.0171 12.5689L20.7394 4.83636H20.7496ZM15.9497 13.8424L18.8824 6.92678L21.8151 13.8424C22.1094 14.5376 22.7639 15.0094 23.5097 15.0754L31.0038 15.7096L25.311 20.6414C24.7427 21.1336 24.4941 21.9048 24.6615 22.6354L26.3714 29.9621L19.9327 26.0755C19.2883 25.6848 18.4816 25.6848 17.8372 26.0755L11.3985 29.9621L13.1083 22.6354C13.2809 21.8997 13.0323 21.1336 12.4589 20.6414L6.76604 15.7096L14.255 15.0754C15.006 15.0094 15.6605 14.5376 15.9497 13.8424Z" fill="#2F3338"/>
</svg>
