<svg width="55" height="54" viewBox="0 0 55 54" fill="none" xmlns="http://www.w3.org/2000/svg">
<path d="M27.0041 4.4594C14.5508 4.4594 4.4594 14.5508 4.4594 27.0041C4.4594 39.4574 14.5508 49.5489 27.0041 49.5489C39.4574 49.5489 49.5489 39.4574 49.5489 27.0041C49.5489 25.3938 49.3837 23.8247 49.0616 22.3135L52.7035 18.6717C53.5541 21.2977 54.0083 24.089 54.0083 26.9959C54.0083 41.9101 41.9183 54 27.0041 54C12.0899 54 0 41.9183 0 27.0041C0 12.0899 12.0899 0 27.0041 0C34.4199 0 41.1421 2.98945 46.0226 7.83698L42.868 10.9916C38.7968 6.95336 33.1895 4.4594 27.0041 4.4594Z" fill="#393C41"/>
<path d="M11.7988 25.7229C10.9317 24.8558 10.9317 23.4436 11.7988 22.5683C12.6659 21.7012 14.078 21.7012 14.9534 22.5683L25.9202 33.5351L50.612 8.8515C51.4791 7.9844 52.8913 7.9844 53.7667 8.8515C54.6338 9.71861 54.6338 11.1307 53.7667 12.0061L27.4975 38.2753C27.0763 38.6964 26.5148 38.9277 25.9202 38.9277C25.3256 38.9277 24.7641 38.6964 24.3429 38.2753L11.7988 25.7311V25.7229Z" fill="#393C41"/>
</svg>
