<svg width="54" height="54" viewBox="0 0 54 54" fill="none" xmlns="http://www.w3.org/2000/svg">
<path d="M15.0404 30.092C14.7293 28.8656 13.4754 28.1334 12.2581 28.4446C11.0316 28.7558 10.2994 30.0097 10.6106 31.2269C12.4869 38.5307 19.1133 43.9307 27.012 43.9307C34.9106 43.9307 41.5279 38.5307 43.4133 31.2269C43.7245 30.0005 42.9923 28.7558 41.7659 28.4446C40.5394 28.1334 39.2947 28.8656 38.9835 30.092C37.6106 35.4188 32.7689 39.3544 27.0211 39.3544C21.2733 39.3544 16.4225 35.4188 15.0587 30.092H15.0404Z" fill="#393C41"/>
<path d="M16.0156 20.5927C16.0156 22.6154 17.6539 24.2537 19.6766 24.2537C21.6994 24.2537 23.3377 22.6154 23.3377 20.5927C23.3377 18.5699 21.6994 16.9316 19.6766 16.9316C17.6539 16.9316 16.0156 18.5699 16.0156 20.5927Z" fill="#393C41"/>
<path d="M34.3251 24.2537C32.3024 24.2537 30.6641 22.6154 30.6641 20.5927C30.6641 18.5699 32.3024 16.9316 34.3251 16.9316C36.3478 16.9316 37.9861 18.5699 37.9861 20.5927C37.9861 22.6154 36.3478 24.2537 34.3251 24.2537Z" fill="#393C41"/>
<path d="M27 0C12.0905 0 0 12.0905 0 27C0 41.9095 12.0905 54 27 54C41.9095 54 54 41.9095 54 27C54 12.0905 41.9095 0 27 0ZM4.57627 27C4.57627 14.6166 14.6166 4.57627 27 4.57627C39.3834 4.57627 49.4237 14.6166 49.4237 27C49.4237 39.3834 39.3834 49.4237 27 49.4237C14.6166 49.4237 4.57627 39.3834 4.57627 27Z" fill="#393C41"/>
</svg>
