<svg width="55" height="50" viewBox="0 0 55 50" fill="none" xmlns="http://www.w3.org/2000/svg">
<path d="M27.0038 4.12907C15.473 4.12907 6.12907 13.473 6.12907 25.0038C6.12907 36.5346 15.473 45.8786 27.0038 45.8786C38.5346 45.8786 47.8786 36.5346 47.8786 25.0038C47.8786 23.5128 47.7256 22.0599 47.4274 20.6606L50.7995 17.2886C51.5871 19.7201 52.0076 22.3046 52.0076 24.9962C52.0076 38.8056 40.8133 50 27.0038 50C13.1944 50 2 38.8133 2 25.0038C2 11.1944 13.1944 0 27.0038 0C33.8703 0 40.0945 2.76801 44.6135 7.25646L41.6926 10.1774C37.9229 6.43829 32.731 4.12907 27.0038 4.12907Z" fill="#2F3338"/>
<path d="M12.9225 23.8176C12.1196 23.0147 12.1196 21.7071 12.9225 20.8966C13.7253 20.0937 15.0329 20.0937 15.8434 20.8966L25.9979 31.0511L48.8607 8.19591C49.6636 7.39303 50.9711 7.39303 51.7816 8.19591C52.5845 8.99878 52.5845 10.3063 51.7816 11.1168L27.4583 35.4401C27.0684 35.8301 26.5484 36.0442 25.9979 36.0442C25.4473 36.0442 24.9274 35.8301 24.5374 35.4401L12.9225 23.8252V23.8176Z" fill="#F47E51"/>
</svg>
