<svg width="33" height="30" viewBox="0 0 33 30" fill="none" xmlns="http://www.w3.org/2000/svg">
<g clip-path="url(#clip0_892_1685)">
<path d="M1.4997 0.00600466C0.671866 0.00600466 0 0.67787 0 1.5057V28.5003C0 29.3281 0.671866 30 1.4997 30H7.4985C8.20036 30 8.81224 29.5141 8.96221 28.8242L14.961 1.82964C15.057 1.38573 14.955 0.923817 14.6671 0.563889C14.3851 0.209959 13.9532 0 13.4973 0H1.4997V0.00600466ZM11.6257 3.0054L6.29274 27.0006H2.9994V3.0054H11.6257Z" fill="#2F3338"/>
<path d="M19.4919 0.00600466C18.6641 0.00600466 17.9922 0.67787 17.9922 1.5057V28.5003C17.9922 29.3281 18.6641 30 19.4919 30H25.4907C26.1925 30 26.8044 29.5141 26.9544 28.8242L32.9532 1.82964C33.0492 1.38573 32.9472 0.923817 32.6592 0.563889C32.3773 0.209959 31.9454 0 31.4895 0H19.4919V0.00600466ZM29.6179 3.0054L24.2849 27.0006H20.9916V3.0054H29.6179Z" fill="#2F3338"/>
</g>
<defs>
<clipPath id="clip0_892_1685">
<rect width="33" height="30" fill="white"/>
</clipPath>
</defs>
</svg>
