<svg width="46" height="54" viewBox="0 0 46 54" fill="none" xmlns="http://www.w3.org/2000/svg">
<path d="M8.20419 44.192C8.69485 44.448 9.07885 44.8 9.35619 45.248C9.63352 45.696 9.77219 46.2133 9.77219 46.8C9.77219 47.7173 9.44685 48.48 8.79619 49.088C8.14552 49.696 7.35085 50 6.41219 50H1.61219V38.8H6.06019C6.97752 38.8 7.75085 39.0987 8.38019 39.696C9.02019 40.2827 9.34019 41.0187 9.34019 41.904C9.34019 42.8747 8.96152 43.6373 8.20419 44.192ZM6.06019 40.528H3.45219V43.472H6.06019C6.46552 43.472 6.80685 43.3333 7.08419 43.056C7.36152 42.768 7.50019 42.416 7.50019 42C7.50019 41.584 7.36152 41.2373 7.08419 40.96C6.80685 40.672 6.46552 40.528 6.06019 40.528ZM6.41219 48.272C6.83885 48.272 7.19619 48.1227 7.48419 47.824C7.78285 47.5147 7.93219 47.1413 7.93219 46.704C7.93219 46.2667 7.78285 45.8987 7.48419 45.6C7.19619 45.2907 6.83885 45.136 6.41219 45.136H3.45219V48.272H6.41219ZM16.8018 45.888C17.5911 46.2507 17.9858 46.864 17.9858 47.728C17.9858 48.4 17.7565 48.9493 17.2978 49.376C16.8498 49.792 16.2045 50 15.3618 50H11.2658V42H15.0418C15.8631 42 16.4978 42.208 16.9458 42.624C17.4045 43.0293 17.6338 43.5573 17.6338 44.208C17.6338 44.9653 17.3565 45.5253 16.8018 45.888ZM14.9138 43.472H12.9138V45.248H14.9138C15.6178 45.248 15.9698 44.9493 15.9698 44.352C15.9698 43.7653 15.6178 43.472 14.9138 43.472ZM15.2018 48.496C15.9271 48.496 16.2898 48.1813 16.2898 47.552C16.2898 47.2747 16.1938 47.0613 16.0018 46.912C15.8098 46.752 15.5431 46.672 15.2018 46.672H12.9138V48.496H15.2018ZM20.7508 46.736C20.8788 47.344 21.1721 47.8133 21.6308 48.144C22.0895 48.464 22.6495 48.624 23.3108 48.624C24.2281 48.624 24.9161 48.2933 25.3748 47.632L26.7988 48.464C26.0095 49.6267 24.8415 50.208 23.2948 50.208C21.9935 50.208 20.9428 49.8133 20.1428 49.024C19.3428 48.224 18.9428 47.216 18.9428 46C18.9428 44.8053 19.3375 43.808 20.1268 43.008C20.9161 42.1973 21.9295 41.792 23.1668 41.792C24.3401 41.792 25.3001 42.2027 26.0468 43.024C26.8041 43.8453 27.1828 44.8427 27.1828 46.016C27.1828 46.1973 27.1615 46.4373 27.1188 46.736H20.7508ZM20.7348 45.328H25.4388C25.3215 44.6773 25.0495 44.1867 24.6228 43.856C24.2068 43.5253 23.7161 43.36 23.1508 43.36C22.5108 43.36 21.9775 43.536 21.5508 43.888C21.1241 44.24 20.8521 44.72 20.7348 45.328ZM33.2313 41.792C34.33 41.792 35.2686 42.2027 36.0473 43.024C36.826 43.8347 37.2153 44.8267 37.2153 46C37.2153 47.184 36.826 48.1813 36.0473 48.992C35.2686 49.8027 34.33 50.208 33.2313 50.208C32.0153 50.208 31.082 49.76 30.4313 48.864V53.2H28.7033V42H30.4313V43.152C31.082 42.2453 32.0153 41.792 33.2313 41.792ZM31.1513 47.84C31.6313 48.32 32.234 48.56 32.9593 48.56C33.6846 48.56 34.2873 48.32 34.7673 47.84C35.2473 47.3493 35.4873 46.736 35.4873 46C35.4873 45.264 35.2473 44.656 34.7673 44.176C34.2873 43.6853 33.6846 43.44 32.9593 43.44C32.234 43.44 31.6313 43.6853 31.1513 44.176C30.6713 44.656 30.4313 45.264 30.4313 46C30.4313 46.736 30.6713 47.3493 31.1513 47.84ZM45.3553 50H43.3553L41.3713 47.264L39.3713 50H37.3553L40.3633 45.888L37.5153 42H39.5153L41.3553 44.528L43.1953 42H45.2113L42.3633 45.904L45.3553 50Z" fill="#F47E51"/>
<path d="M8.05085 18C8.05085 9.7438 14.7438 3.05085 23 3.05085C31.2562 3.05085 37.9492 9.7438 37.9492 18C37.9492 22.1284 36.2773 25.8639 33.5706 28.5706C30.8639 31.2779 27.1284 32.9492 23 32.9492C14.7438 32.9492 8.05085 26.2562 8.05085 18ZM23 1.2517e-06C13.0591 1.2517e-06 5 8.05912 5 18C5 27.9409 13.0591 36 23 36C27.9704 36 32.4723 33.9834 35.7275 30.7281C38.9834 27.4723 41 22.9704 41 18C41 8.05912 32.9409 1.2517e-06 23 1.2517e-06Z" fill="#F47E51"/>
<path d="M15 22L23 15L31 22" stroke="#F47E51" stroke-width="3" stroke-linecap="round" stroke-linejoin="round"/>
</svg>
