<svg width="50" height="50" viewBox="0 0 50 50" fill="none" xmlns="http://www.w3.org/2000/svg">
<path d="M10 9.45833C10 8.65333 10.6533 8 11.4583 8H34.7917C35.5967 8 36.25 8.65333 36.25 9.45833V14.4808C35.3283 14.1542 34.3483 13.9442 33.3333 13.8683V10.9167H12.9167V40.0833H33.3333V36.5483C34.3483 36.4725 35.3283 36.2625 36.25 35.9358V41.5417C36.25 42.3467 35.5967 43 34.7917 43H11.4583C10.6533 43 10 42.3467 10 41.5417V9.45833Z" fill="#F47E51"/>
<path d="M32.4583 16.75C27.7858 16.75 24 20.5358 24 25.2083C24 29.8808 27.7858 33.6667 32.4583 33.6667C34.2667 33.6667 35.9467 33.095 37.3175 32.1325L41.5 36.315C42.0717 36.8867 42.9933 36.8867 43.565 36.315C44.1367 35.7433 44.1367 34.8217 43.565 34.25L39.3825 30.0675C40.3508 28.6908 40.9167 27.0167 40.9167 25.2083C40.9167 20.5358 37.1308 16.75 32.4583 16.75ZM26.9167 25.2083C26.9167 22.1458 29.3958 19.6667 32.4583 19.6667C35.5208 19.6667 38 22.1458 38 25.2083C38 26.7367 37.3817 28.125 36.3783 29.1283C35.375 30.1317 33.9925 30.75 32.4583 30.75C29.3958 30.75 26.9167 28.2708 26.9167 25.2083Z" fill="#F47E51"/>
</svg>
