<svg width="50" height="50" viewBox="0 0 50 50" fill="none" xmlns="http://www.w3.org/2000/svg">
<path d="M16.8197 25.3679C16.1955 24.7501 16.1955 23.7374 16.8197 23.1133C17.4375 22.4892 18.4501 22.4892 19.0679 23.1133L22.144 26.1767L29.2198 19.1009C29.844 18.4768 30.8502 18.4768 31.4744 19.1009C32.0985 19.7251 32.0985 20.7313 31.4744 21.3555L23.2713 29.5586C22.6472 30.1763 21.6473 30.1827 21.0231 29.5586L16.8197 25.3742V25.3679Z" fill="#F47E51"/>
<path d="M23.6928 8C15.0248 8 8 15.0248 8 23.6928C8 32.3608 15.0248 39.3857 23.6928 39.3857C27.4505 39.3857 30.9024 38.061 33.6028 35.8573L40.2773 42.5319C40.9015 43.156 41.9077 43.156 42.5319 42.5319C43.156 41.9077 43.156 40.9015 42.5319 40.2773L35.8573 33.6028C38.061 30.9024 39.3857 27.4505 39.3857 23.6928C39.3857 15.0248 32.3608 8 23.6928 8ZM11.1844 23.6928C11.1844 16.789 16.7826 11.1844 23.6928 11.1844C30.603 11.1844 36.2013 16.7826 36.2013 23.6928C36.2013 27.1448 34.8001 30.2719 32.5392 32.5392C30.2719 34.8065 27.1511 36.2013 23.6928 36.2013C16.789 36.2013 11.1844 30.603 11.1844 23.6928Z" fill="#F47E51"/>
</svg>
