<svg width="50" height="50" viewBox="0 0 50 50" fill="none" xmlns="http://www.w3.org/2000/svg">
<path d="M24.6483 17.7578C22.5953 17.7578 20.6282 18.5722 19.1715 20.0231C17.7206 21.474 16.9062 23.4468 16.9062 25.4999C16.9062 27.553 17.7206 29.5201 19.1715 30.9767C20.6224 32.4277 22.5953 33.242 24.6483 33.242C26.7014 33.242 28.6685 32.4277 30.1252 30.9767C31.5761 29.5258 32.3904 27.5587 32.3904 25.4999C32.3904 23.4411 31.5761 21.4798 30.1252 20.0231C28.6742 18.5722 26.7072 17.7578 24.6483 17.7578ZM21.2017 22.0532C22.1135 21.1414 23.358 20.6253 24.6483 20.6253C25.9387 20.6253 27.1832 21.1414 28.095 22.0532C29.0068 22.9651 29.523 24.2096 29.523 25.4999C29.523 26.7903 29.0068 28.0347 28.095 28.9466C27.1832 29.8642 25.9387 30.3746 24.6483 30.3746C23.358 30.3746 22.1135 29.8584 21.2017 28.9466C20.2898 28.0347 19.7737 26.7903 19.7737 25.4999C19.7737 24.2096 20.2898 22.9651 21.2017 22.0532Z" fill="#F47E51"/>
<path d="M25.4075 8.19785C24.9602 7.93405 24.3982 7.93405 23.9508 8.19785L9.70538 16.5995C9.26953 16.8575 9 17.3278 9 17.8325V33.2306C9 33.7353 9.26953 34.2056 9.70538 34.4636L23.8476 42.8021C24.2949 43.066 24.8512 43.066 25.2985 42.8021L39.544 34.4636C39.9856 34.2056 40.2551 33.7353 40.2551 33.2249V17.7636C40.2551 17.259 39.9856 16.7887 39.5497 16.5306L25.4075 8.19211V8.19785ZM11.8674 18.6525L24.6792 11.0997L37.3877 18.5952V32.4163L24.5759 39.9118L11.8674 32.4163V18.6525Z" fill="#F47E51"/>
</svg>
