<svg width="23" height="23" viewBox="0 0 23 23" fill="none" xmlns="http://www.w3.org/2000/svg">
<path fill-rule="evenodd" clip-rule="evenodd" d="M11.7749 2.55469C6.68273 2.55469 2.55469 6.68273 2.55469 11.7749C2.55469 13.4551 3.0043 15.0302 3.78949 16.3868L2.55469 20.9951L7.16306 19.7603C8.51967 20.5455 10.0948 20.9951 11.7749 20.9951C16.8671 20.9951 20.9951 16.8671 20.9951 11.7749C20.9951 6.68273 16.8671 2.55469 11.7749 2.55469ZM17.1818 16.202L16.3862 16.9976C14.7859 18.0002 11.6907 16.9213 9.1596 14.3903C6.62857 11.8592 5.54968 8.76398 6.55225 7.16366L7.34789 6.36801C7.59761 6.11829 8.0062 6.11829 8.25587 6.36801L10.2042 8.31638C10.454 8.56609 10.454 8.97469 10.2042 9.2244L9.4086 10.02C9.05259 10.6733 9.53127 11.9264 10.5774 12.9725C11.6235 14.0186 12.8766 14.4973 13.5299 14.1413L14.3255 13.3457C14.5752 13.0959 14.9838 13.0959 15.2335 13.3457L17.1819 15.294C17.4315 15.5437 17.4315 15.9523 17.1818 16.202Z" fill="#393C41"/>
</svg>
