<svg width="65" height="60" viewBox="0 0 65 60" fill="none" xmlns="http://www.w3.org/2000/svg">
<g clip-path="url(#clip0_836_2134)">
<path d="M46.9321 3.71486C46.0154 5.81449 45.3155 8.0118 44.8518 10.2459C44.7553 10.7053 45.1121 11.1376 45.59 11.1376C45.94 11.1376 46.2537 10.8958 46.3262 10.5437C46.7703 8.40929 47.4389 6.30966 48.3143 4.30288C48.479 3.9257 48.3026 3.48856 47.9212 3.32705C47.5408 3.1636 47.0958 3.33768 46.9321 3.71486Z" fill="black"/>
<path d="M50.7777 13.7011C50.9982 13.7011 51.2168 13.6054 51.3659 13.4216L56.5411 7.03378C56.8009 6.71367 56.7479 6.24654 56.4234 5.99026C56.0999 5.7359 55.6264 5.78522 55.3647 6.10728L50.1894 12.4951C49.792 12.9849 50.1557 13.7011 50.7777 13.7011Z" fill="black"/>
<path d="M64.9442 14.0782C64.7825 13.6991 64.3384 13.5221 63.958 13.6817C61.069 14.881 58.0309 15.7088 54.9281 16.1421C54.5164 16.1992 54.2301 16.5754 54.2889 16.9816C54.349 17.4019 54.7524 17.6741 55.1398 17.6121C58.3701 17.1614 61.5336 16.2997 64.5423 15.0512C64.9256 14.8916 65.105 14.4564 64.9442 14.0782Z" fill="black"/>
<path d="M14.8682 37.8352C13.9156 44.4896 12.3358 51.0715 10.1487 57.4306C10.0143 57.8186 10.2247 58.2673 10.6675 58.3836C10.6475 58.3912 10.6278 58.3996 10.6077 58.4072C11.4204 59.0508 12.3407 59.5618 13.32 59.9132C19.97 57.4754 26.4729 54.4565 32.6656 51.0248C37.4821 54.3297 42.9934 57.2613 49.4241 59.9403C49.918 60.1484 50.4765 59.787 50.4702 59.2488C50.4015 52.889 49.2663 46.1182 46.9027 37.9759C52.5437 33.4008 57.5715 29.28 63.4058 24.5503C63.898 24.153 63.6931 23.3587 63.0627 23.2466C55.8116 21.9389 48.9622 20.8043 41.9157 19.5358C33.4147 3.67231 34.9923 0.235301 33.4789 0.0336681C33.3352 0.0117869 33.1939 0.0372948 33.0675 0.0947783C33.0801 0.062984 33.0933 0.0317943 33.1058 0C31.4197 0.759919 29.8744 1.79988 28.4736 2.99767C27.2999 4.00112 23.6448 12.6473 20.897 18.4104C14.5905 19.7175 8.00608 20.1568 1.28743 19.6953C0.920648 19.6783 0.572294 19.9057 0.498992 20.3047C0.469705 20.3189 0.436067 20.3365 0.411252 20.3472C0.117272 21.4432 -0.0207111 22.5798 0.00251082 23.7133C4.06351 29.2409 9.10504 34.0579 14.8682 37.8352ZM20.4515 20.0214C20.8235 20.0222 21.1786 19.9455 21.5161 19.8017C23.2469 19.4347 23.5601 19.4358 23.7814 19.0512L33.1289 2.71744C34.6877 8.14398 37.0817 13.7301 40.757 20.5503C41.0713 21.1367 40.5288 20.7355 61.1941 24.4207C56.1154 28.5438 50.7706 32.918 45.5645 37.1384C45.3312 37.327 45.2351 37.6336 45.3185 37.9189C47.5919 45.6462 48.7526 52.1047 48.9399 58.1202C41.953 55.1298 36.0954 51.8252 31.0614 48.036C30.8159 47.8522 30.4848 47.8347 30.2222 47.9867C24.6196 51.2439 18.2258 54.2227 12.0624 56.4558C14.275 49.712 15.8259 42.7381 16.6758 35.7022C16.7549 35.0434 16.9147 35.7033 3.09812 21.2853C9.0271 21.5472 14.8434 21.1191 20.4515 20.0214Z" fill="black"/>
</g>
<defs>
<clipPath id="clip0_836_2134">
<rect width="65" height="60" fill="white"/>
</clipPath>
</defs>
</svg>
