<svg width="8" height="8" viewBox="0 0 8 8" fill="none" xmlns="http://www.w3.org/2000/svg">
<path d="M0 3.99125C0 1.78701 1.80069 0 4.02181 0C6.03832 0 7.70803 1.4725 7.99881 3.3932C8.00842 3.45621 7.95853 3.51233 7.89424 3.51233H7.02297C6.97042 3.51233 6.92587 3.47447 6.91573 3.42338C6.64923 2.07875 5.4549 1.06453 4.02181 1.06453C2.39292 1.06453 1.07241 2.375 1.07241 3.99152C1.07241 4.20543 1.09562 4.41378 1.13937 4.61472C1.15138 4.66952 1.13564 4.72697 1.09562 4.76668L0.427098 5.43012C0.37321 5.4836 0.282242 5.46586 0.255298 5.39518C0.0904348 4.95809 0 4.485 0 3.99125Z" fill="#F6F7F8"/>
<path d="M5.36288 2.44922C5.48133 2.44922 5.57737 2.54453 5.57737 2.66207V5.32299C5.57737 5.44054 5.48133 5.53585 5.36288 5.53585H4.77306C4.65461 5.53585 4.55858 5.44054 4.55858 5.32299V4.46232C4.55858 4.36754 4.44306 4.31989 4.37557 4.38713L2.48258 6.26574C2.41162 6.33616 2.42229 6.45344 2.50819 6.5048C2.95076 6.76822 3.46882 6.91939 4.02237 6.91939C5.41864 6.91939 6.58842 5.95626 6.89387 4.66299C6.90561 4.61375 6.94936 4.57801 7.00032 4.57801H7.87692C7.94228 4.57801 7.9927 4.63572 7.98123 4.69979C7.64483 6.56675 6.00046 7.98392 4.02237 7.98392C2.78803 7.98392 1.68334 7.43193 0.945718 6.56331C0.876358 6.48177 0.884895 6.36158 0.960924 6.28613L3.62488 3.64241C3.69238 3.57543 3.64462 3.4608 3.54912 3.4608H2.68185C2.56341 3.4608 2.46737 3.36549 2.46737 3.24795V2.6626C2.46737 2.54506 2.56341 2.44975 2.68185 2.44975H5.36315L5.36288 2.44922Z" fill="#F47E51"/>
</svg>
