<svg width="50" height="50" viewBox="0 0 50 50" fill="none" xmlns="http://www.w3.org/2000/svg">
<path d="M16.0391 9C11.4829 9 7.78906 12.6939 7.78906 17.25C7.78906 21.8061 11.4829 25.5 16.0391 25.5C20.5952 25.5 24.2891 21.8061 24.2891 17.25C24.2891 12.6939 20.5952 9 16.0391 9ZM10.4504 17.25C10.4504 14.1629 12.952 11.6613 16.0391 11.6613C19.1262 11.6613 21.6278 14.1629 21.6278 17.25C21.6278 20.3371 19.1262 22.8387 16.0391 22.8387C12.952 22.8387 10.4504 20.3371 10.4504 17.25Z" fill="#2F3338"/>
<path d="M29.1213 25.2616C29.0148 25.7087 29.1532 26.1824 29.4779 26.507L35.4019 32.4045C35.9235 32.9207 36.7645 32.9207 37.2808 32.4045L47.1755 22.5098C47.6971 21.9882 47.6971 21.1472 47.1755 20.6256C46.6538 20.104 45.8129 20.104 45.2913 20.6256L36.3334 29.5835L31.5218 24.7932C31.1918 24.3248 30.585 24.1066 30.0155 24.2982H29.9942C29.5577 24.4525 29.2277 24.8145 29.1213 25.2616Z" fill="#2F3338"/>
<path d="M6.82161 31.4505C9.26467 29.0021 12.586 27.6289 16.0403 27.6289C19.4947 27.6289 22.816 29.0021 25.259 31.4505C27.7074 33.8989 29.0806 37.2149 29.0806 40.6692C29.0806 41.0205 28.9422 41.3612 28.6921 41.6113C28.4419 41.8615 28.1066 41.9999 27.75 41.9999H4.33065C3.97935 41.9999 3.6387 41.8615 3.38854 41.6113C3.13838 41.3612 3 41.0205 3 40.6692C3 37.2096 4.37322 33.8936 6.82161 31.4505ZM16.0403 30.2902C13.2885 30.2902 10.6485 31.3813 8.70046 33.3294C7.07175 34.9581 6.03918 37.0765 5.74644 39.3386H26.3342C26.0414 37.0765 25.0089 34.9581 23.3801 33.3294C21.4321 31.3813 18.7921 30.2902 16.0403 30.2902Z" fill="#2F3338"/>
</svg>
