<svg width="50" height="50" viewBox="0 0 50 50" fill="none" xmlns="http://www.w3.org/2000/svg">
<path d="M10.5135 8.44966C9.91398 7.85011 8.94737 7.85011 8.34782 8.44966C7.74827 9.04921 7.74827 10.0158 8.34782 10.6154L11.0458 13.3133C13.3277 15.5953 17.0229 15.5953 19.3049 13.3133C19.831 12.7872 20.6814 12.7872 21.2075 13.3133L22.5045 14.6103L17.0963 20.0185C16.4968 20.6181 16.4968 21.5847 17.0963 22.1842L17.7754 22.8633C20.7609 25.8488 25.6063 25.8488 28.5918 22.8633L29.6746 21.7804L36.5694 28.6691C37.169 29.2687 37.169 30.2353 36.5694 30.8349L27.9188 39.4855C27.6619 39.7424 27.3315 39.8893 26.995 39.926C27.5395 38.7881 27.6557 37.5706 27.4049 36.3654C27.0439 34.6157 25.955 33.0128 24.6396 31.6975L20.3143 27.3722C19.0051 26.0629 17.4389 25.0107 15.7137 24.7231C14.3494 24.4968 13.0157 24.766 11.8044 25.5429L2.61537 16.3539C2.01582 15.7544 1.04921 15.7544 0.449662 16.3539C-0.149887 16.9535 -0.149887 17.9201 0.449662 18.5196L9.71209 27.7821C8.89842 29.4889 9.19818 31.5935 10.6114 33.0067L19.262 41.6573C20.7242 43.1195 22.9328 43.3887 24.6702 42.4588C26.4077 43.3887 28.6162 43.1195 30.0784 41.6573L38.729 33.0067C40.1423 31.5935 40.442 29.4889 39.6283 27.7821L48.8908 18.5196C49.4842 17.9201 49.4842 16.9535 48.8908 16.3539C48.2912 15.7544 47.3246 15.7544 46.7251 16.3539L37.6462 25.4328L30.7514 18.5441C30.4638 18.2566 30.0784 18.0975 29.6685 18.0975C29.2586 18.0975 28.8732 18.2566 28.5856 18.5441L26.4261 20.7098C24.7681 22.3678 22.1619 22.4901 20.3632 21.0891L28.1268 13.3256C28.6529 12.7994 29.5033 12.7994 30.0295 13.3256C32.3114 15.6075 36.0066 15.6075 38.2886 13.3256L40.9865 10.6276C41.5861 10.0281 41.5861 9.06144 40.9865 8.46189C40.387 7.86234 39.4204 7.86234 38.8208 8.46189L36.1228 11.1599C35.0339 12.2488 33.278 12.2488 32.1891 11.1599C30.4699 9.44075 27.6802 9.44075 25.9611 11.1599L24.6641 12.4568L23.3671 11.1599C21.648 9.44075 18.8583 9.44075 17.1392 11.1599C16.0502 12.2488 14.2944 12.2488 13.2054 11.1599L10.5074 8.46189L10.5135 8.44966ZM12.7771 28.6691C13.6581 27.7882 14.4595 27.6108 15.212 27.7392C16.0624 27.8799 17.0719 28.4611 18.1547 29.5379L22.48 33.8632C23.5568 34.9399 24.2175 36.035 24.4133 36.9833C24.5907 37.8337 24.4194 38.6596 23.5935 39.4855C22.9939 40.085 22.0273 40.085 21.4339 39.4855L12.7833 30.8349C12.1837 30.2353 12.1837 29.2687 12.7833 28.6691H12.7771Z" fill="#F47E51"/>
</svg>
