<svg width="50" height="50" viewBox="0 0 50 50" fill="none" xmlns="http://www.w3.org/2000/svg">
<path d="M27.5175 9.46972C26.6854 7.51009 23.9058 7.51009 23.0737 9.46972L19.1786 18.6589L9.21155 19.503C7.08912 19.6839 6.22087 22.3309 7.83682 23.7298L15.404 30.2901L13.1308 40.034C12.6484 42.1142 14.8975 43.7482 16.7245 42.6448L25.2866 37.4774L33.8547 42.6448C35.6817 43.7482 37.9368 42.1081 37.4484 40.034L35.1752 30.2901L42.7424 23.7298C44.3523 22.3309 43.4901 19.6839 41.3676 19.503L31.4006 18.6589L27.5055 9.46972H27.5175ZM21.8135 20.1723L25.2986 11.9539L28.7838 20.1723C29.1335 20.9984 29.9113 21.5592 30.7977 21.6375L39.7034 22.3912L32.9382 28.252C32.2629 28.8369 31.9674 29.7534 32.1664 30.6217L34.1984 39.3285L26.5468 34.7098C25.781 34.2455 24.8223 34.2455 24.0565 34.7098L16.4049 39.3285L18.4369 30.6217C18.6419 29.7474 18.3465 28.8369 17.6651 28.252L10.8998 22.3912L19.7996 21.6375C20.692 21.5592 21.4698 20.9984 21.8135 20.1723Z" fill="#F47E51"/>
</svg>
