<svg width="50" height="50" viewBox="0 0 50 50" fill="none" xmlns="http://www.w3.org/2000/svg">
<g clip-path="url(#clip0_991_1461)">
<path d="M37.7915 5C38.1962 5 38.589 5.16664 38.8687 5.46421L49.3372 16.4564C50.7833 17.974 49.7061 20.4795 47.6112 20.4795H44.0404V43.9874C44.0404 44.8087 43.3739 45.4752 42.5526 45.4752H33.0304C32.2091 45.4752 31.5426 44.8087 31.5426 43.9874V20.4735H27.9717C25.8769 20.4735 24.8056 17.968 26.2459 16.4504L36.7143 5.46421C36.994 5.16664 37.3868 5 37.7915 5ZM29.3584 17.4979H33.0304C33.8517 17.4979 34.5182 18.1644 34.5182 18.9857V42.4936H41.0647V18.9857C41.0647 18.1644 41.7313 17.4979 42.5526 17.4979H46.2246L37.7915 8.64223L29.3584 17.4979Z" fill="#2F3338"/>
<path d="M0 34.4605C0 33.6392 0.666553 32.9727 1.48784 32.9727H11.01C11.8313 32.9727 12.4979 33.6392 12.4979 34.4605V43.9827C12.4979 44.804 11.8313 45.4705 11.01 45.4705H1.48784C0.666553 45.4705 0 44.804 0 43.9827V34.4605ZM2.97568 35.9483V42.4948H9.52218V35.9483H2.97568Z" fill="#2F3338"/>
<path d="M17.2769 23.3516C16.4556 23.3516 15.7891 24.0181 15.7891 24.8394V43.8838C15.7891 44.7051 16.4556 45.3716 17.2769 45.3716H26.7991C27.6204 45.3716 28.2869 44.7051 28.2869 43.8838V24.8394C28.2869 24.0181 27.6204 23.3516 26.7991 23.3516H17.2769ZM25.3112 42.3959H18.7647V26.3272H25.3112V42.3959Z" fill="#2F3338"/>
</g>
<defs>
<clipPath id="clip0_991_1461">
<rect width="50" height="50" fill="white"/>
</clipPath>
</defs>
</svg>
