<svg width="50" height="50" viewBox="0 0 50 50" fill="none" xmlns="http://www.w3.org/2000/svg">
<path d="M34.7214 10C35.029 10 35.3275 10.1266 35.5401 10.3528L43.496 18.7067C44.5951 19.8601 43.7764 21.7643 42.1843 21.7643H39.4706V39.6301C39.4706 40.2542 38.964 40.7608 38.3398 40.7608H31.103C30.4789 40.7608 29.9723 40.2542 29.9723 39.6301V21.7598H27.2585C25.6664 21.7598 24.8523 19.8556 25.9469 18.7022L33.9028 10.3528C34.1153 10.1266 34.4139 10 34.7214 10ZM28.3124 19.4983H31.103C31.7272 19.4983 32.2338 20.0048 32.2338 20.629V38.4948H37.2091V20.629C37.2091 20.0048 37.7156 19.4983 38.3398 19.4983H41.1305L34.7214 12.7681L28.3124 19.4983Z" fill="#2F3338"/>
<path d="M6 32.3886C6 31.7644 6.50657 31.2578 7.13075 31.2578H14.3675C14.9917 31.2578 15.4983 31.7644 15.4983 32.3886V39.6253C15.4983 40.2495 14.9917 40.7561 14.3675 40.7561H7.13075C6.50657 40.7561 6 40.2495 6 39.6253V32.3886ZM8.26149 33.5193V38.4946H13.2368V33.5193H8.26149Z" fill="#2F3338"/>
<path d="M19.1307 23.9453C18.5066 23.9453 18 24.4519 18 25.0761V39.5496C18 40.1738 18.5066 40.6803 19.1307 40.6803H26.3675C26.9917 40.6803 27.4983 40.1738 27.4983 39.5496V25.0761C27.4983 24.4519 26.9917 23.9453 26.3675 23.9453H19.1307ZM25.2368 38.4189H20.2615V26.2068H25.2368V38.4189Z" fill="#2F3338"/>
</svg>
