<svg width="50" height="50" viewBox="0 0 50 50" fill="none" xmlns="http://www.w3.org/2000/svg">
<path d="M25.2073 11C21.4643 11 18.4297 14.0346 18.4297 17.7777C18.4297 21.5207 21.4643 24.5553 25.2073 24.5553C28.9504 24.5553 31.985 21.5207 31.985 17.7777C31.985 14.0346 28.9504 11 25.2073 11ZM20.616 17.7777C20.616 15.2415 22.6712 13.1863 25.2073 13.1863C27.7435 13.1863 29.7987 15.2415 29.7987 17.7777C29.7987 20.3138 27.7435 22.369 25.2073 22.369C22.6712 22.369 20.616 20.3138 20.616 17.7777Z" fill="#2F3338"/>
<path d="M25.2052 26.3047C22.363 26.3047 19.6388 27.4328 17.6318 29.4443C15.6203 31.4513 14.4922 34.1799 14.4922 37.0178C14.4922 37.3063 14.6059 37.5862 14.8114 37.7917C15.0169 37.9972 15.2924 38.1109 15.5854 38.1109H34.8251C35.1137 38.1109 35.3936 37.9972 35.5991 37.7917C35.8046 37.5862 35.9183 37.3107 35.9183 37.0178C35.9183 34.1755 34.7902 31.4513 32.7787 29.4443C30.7717 27.4372 28.0431 26.3047 25.2052 26.3047ZM19.1753 30.9878C20.7757 29.3874 22.9446 28.491 25.2052 28.491C27.4659 28.491 29.6348 29.3874 31.2352 30.9878C32.5732 32.3259 33.4215 34.0662 33.662 35.9246H16.7485C16.989 34.0662 17.8373 32.3259 19.1753 30.9878Z" fill="#2F3338"/>
<path d="M16.9887 21.3727C16.2279 22.256 15.0997 22.8069 13.8404 22.8069C11.5447 22.8069 9.68634 20.9485 9.68634 18.6529C9.68634 16.3572 11.5447 14.4988 13.8404 14.4988C14.8723 14.4988 15.8125 14.7525 16.5383 15.3734C16.7351 14.6344 17.0193 14.0485 17.3866 13.3969C16.3722 12.7104 15.1522 12.3125 13.8404 12.3125C10.3379 12.3125 7.5 15.1504 7.5 18.6529C7.5 22.1554 10.3379 24.9933 13.8404 24.9933C15.5064 24.9933 17.0193 24.3505 18.1518 23.301C17.6883 22.7107 17.2948 22.0723 16.9931 21.3727H16.9887Z" fill="#2F3338"/>
<path d="M16.8119 27.2232C15.8587 26.9083 14.8574 26.7422 13.8385 26.7422C11.2105 26.7422 8.705 27.8397 6.8641 29.7725C5.0232 31.7052 4 34.3113 4 37.018C4 37.3066 4.11368 37.5864 4.3192 37.7919C4.52471 37.9975 4.8002 38.1112 5.09317 38.1112H12.4961C12.3737 37.7701 12.3081 37.4028 12.3081 37.018C12.3081 36.6332 12.3256 36.2877 12.3562 35.9248H6.25629C6.48367 34.1714 7.24889 32.536 8.44701 31.2767C9.88562 29.7637 11.8271 28.9285 13.8385 28.9285C14.2539 28.9285 14.6693 28.9635 15.076 29.0335C15.3908 28.6356 15.7275 28.2551 16.0861 27.8966C16.3222 27.6604 16.5627 27.4374 16.8119 27.2232Z" fill="#2F3338"/>
<path d="M37.1183 20.0766C36.6897 20.5051 36.6897 21.196 37.1183 21.6245C37.5468 22.053 38.2377 22.053 38.6662 21.6245L40.3103 19.9804V30.8946C40.3103 31.498 40.8001 31.9877 41.4035 31.9877C42.0069 31.9877 42.4967 31.498 42.4967 30.8946V19.9804L44.1408 21.6245C44.5693 22.053 45.2602 22.053 45.6844 21.6245C46.1129 21.196 46.1129 20.5051 45.6844 20.0766L42.1731 16.5653C41.9676 16.3598 41.6921 16.2461 41.3991 16.2461C41.1061 16.2461 40.8307 16.3598 40.6252 16.5653L37.1139 20.0766H37.1183Z" fill="#2F3338"/>
</svg>
