<svg width="50" height="50" viewBox="0 0 50 50" fill="none" xmlns="http://www.w3.org/2000/svg">
<path d="M11.0182 23.7005C10.1263 23.7005 9.40625 22.9805 9.40625 22.0885C9.40625 21.1966 10.1263 20.4766 11.0182 20.4766C11.9101 20.4766 12.6301 21.1966 12.6301 22.0885C12.6301 22.9805 11.9101 23.7005 11.0182 23.7005Z" fill="#2F3338"/>
<path d="M16.3854 23.7005C15.4934 23.7005 14.7734 22.9805 14.7734 22.0885C14.7734 21.1966 15.4934 20.4766 16.3854 20.4766C17.2773 20.4766 17.9973 21.1966 17.9973 22.0885C17.9973 22.9805 17.2773 23.7005 16.3854 23.7005Z" fill="#2F3338"/>
<path d="M20.1484 22.0885C20.1484 22.9805 20.8684 23.7005 21.7604 23.7005C22.6523 23.7005 23.3723 22.9805 23.3723 22.0885C23.3723 21.1966 22.6523 20.4766 21.7604 20.4766C20.8684 20.4766 20.1484 21.1966 20.1484 22.0885Z" fill="#2F3338"/>
<path d="M0.392231 10.3922C0.644769 10.1397 0.983289 10 1.34329 10H30.8957C31.6372 10 32.239 10.6018 32.239 11.3433V32.8359C32.239 33.1906 32.0993 33.5345 31.8467 33.787C31.5942 34.0395 31.2557 34.1792 30.8957 34.1792H11.0902L3.50328 40.3369C2.10089 41.476 0 40.4766 0 38.6658V11.3433C0 10.9887 0.139692 10.6448 0.392231 10.3922ZM2.68658 37.5375L9.76303 31.7936C10.0048 31.6001 10.3004 31.4927 10.612 31.4927H29.5524V12.6866H2.68658V37.5375Z" fill="#2F3338"/>
<path d="M39.0784 21.4449C38.5572 20.9184 38.5572 20.0694 39.0784 19.5428L43.3931 15.2282C43.6456 14.9756 43.9895 14.8359 44.3441 14.8359C44.6987 14.8359 45.0426 14.9756 45.2952 15.2282L49.6098 19.5428C50.131 20.0694 50.131 20.9184 49.6098 21.4449C49.0833 21.9715 48.2343 21.9715 47.7077 21.4449L45.6874 19.4246V32.836C45.6874 33.5775 45.0856 34.1793 44.3441 34.1793C43.6026 34.1793 43.0008 33.5775 43.0008 32.836V19.4246L40.9805 21.4449C40.4539 21.9715 39.605 21.9715 39.0784 21.4449Z" fill="#2F3338"/>
</svg>
