<svg width="50" height="50" viewBox="0 0 50 50" fill="none" xmlns="http://www.w3.org/2000/svg">
<path d="M26.5199 8.41157C25.9555 7.86281 25.0457 7.86281 24.4813 8.41157L8.67987 23.7767C7.22871 25.1878 8.25374 27.6012 10.3095 27.6012H15.4231V41.6001C15.4231 42.3729 16.0681 43 16.8628 43H34.1384C34.9331 43 35.5781 42.3729 35.5781 41.6001V27.6012H40.6917C42.7417 27.6012 43.7725 25.1878 42.3214 23.7767L26.5199 8.41157ZM18.3024 26.2013C18.3024 25.4286 17.6575 24.8015 16.8628 24.8015H11.7031L25.5006 11.3849L39.2981 24.8015H34.1384C33.3438 24.8015 32.6988 25.4286 32.6988 26.2013V40.2002H18.3024V26.2013Z" fill="#F47E51"/>
</svg>
