<svg width="50" height="50" viewBox="0 0 50 50" fill="none" xmlns="http://www.w3.org/2000/svg">
<path d="M18.5469 10.4641C18.5469 9.6559 19.2028 9 20.0109 9H29.3809C30.189 9 30.8449 9.6559 30.8449 10.4641V38.5738C30.8449 39.382 30.189 40.0379 29.3809 40.0379H20.0109C19.2028 40.0379 18.5469 39.382 18.5469 38.5738V10.4641ZM21.475 11.9281V37.1098H27.9168V11.9281H21.475Z" fill="#F47E51"/>
<path d="M3 29.2961C3 28.4879 3.6559 27.832 4.46405 27.832H13.834C14.6421 27.832 15.298 28.4879 15.298 29.2961V38.666C15.298 39.4742 14.6421 40.1301 13.834 40.1301H4.46405C3.6559 40.1301 3 39.4742 3 38.666V29.2961ZM5.9281 30.7601V37.202H12.3699V30.7601H5.9281Z" fill="#F47E51"/>
<path d="M35.5031 18.4629C34.695 18.4629 34.0391 19.1188 34.0391 19.9269V38.6668C34.0391 39.475 34.695 40.1309 35.5031 40.1309H44.873C45.6812 40.1309 46.3371 39.475 46.3371 38.6668V19.9269C46.3371 19.1188 45.6812 18.4629 44.873 18.4629H35.5031ZM43.409 37.2028H36.9672V21.391H43.409V37.2028Z" fill="#F47E51"/>
</svg>
