<svg width="277" height="277" viewBox="0 0 277 277" fill="none" xmlns="http://www.w3.org/2000/svg">
<g opacity="0.6">
<path d="M0 138.508C0 62.0146 62.349 0 139.255 0C209.077 0 266.891 51.1 276.959 117.754C277.291 119.941 275.564 121.889 273.338 121.889H243.17C241.351 121.889 239.808 120.575 239.457 118.802C230.229 72.1391 188.876 36.9423 139.255 36.9423C82.8549 36.9423 37.1323 82.4197 37.1323 138.518C37.1323 145.941 37.9359 153.172 39.4508 160.145C39.8664 162.046 39.3214 164.04 37.9359 165.418L14.7883 188.442C12.9224 190.298 9.77263 189.682 8.8397 187.229C3.13131 172.061 0 155.643 0 138.508Z" fill="#2F3338"/>
<path d="M185.683 84.9258C189.784 84.9258 193.11 88.2332 193.11 92.3124V184.654C193.11 188.734 189.784 192.041 185.683 192.041H165.26C161.159 192.041 157.834 188.734 157.834 184.654V154.786C157.834 151.497 153.834 149.844 151.497 152.177L85.9524 217.371C83.4954 219.814 83.8648 223.884 86.8391 225.667C102.163 234.808 120.101 240.054 139.268 240.054C187.614 240.054 228.117 206.631 238.694 161.75C239.1 160.042 240.615 158.801 242.379 158.801H272.731C274.995 158.801 276.74 160.804 276.343 163.027C264.695 227.817 207.759 276.997 139.268 276.997C96.5286 276.997 58.2787 257.841 32.7387 227.697C30.3371 224.868 30.6327 220.696 33.2652 218.078L125.505 126.333C127.842 124.009 126.188 120.031 122.881 120.031H92.8523C88.7511 120.031 85.4259 116.723 85.4259 112.644V92.3308C85.4259 88.2516 88.7511 84.9442 92.8523 84.9442H185.692L185.683 84.9258Z" fill="#F47E51"/>
</g>
</svg>
