<svg width="50" height="50" viewBox="0 0 50 50" fill="none" xmlns="http://www.w3.org/2000/svg">
<path d="M10 9.45833C10 8.65333 10.6533 8 11.4583 8H34.7917C35.5967 8 36.25 8.65333 36.25 9.45833V19.1533L33.3333 22.07V10.9167H12.9167V40.0833H33.3333V34.4483L36.25 31.5317V41.5417C36.25 42.3467 35.5967 43 34.7917 43H11.4583C10.6533 43 10 42.3467 10 41.5417V9.45833Z" fill="#F47E51"/>
<path d="M22.3905 25.6569C22.0347 25.301 21.883 24.7819 21.9997 24.2919C22.1163 23.8019 22.478 23.4052 22.9563 23.2419H22.9797C23.6097 23.026 24.2747 23.2652 24.6363 23.7785L30.2072 29.3202L40.5205 19.0069C41.0922 18.4352 42.0138 18.4352 42.5797 19.0069C43.1513 19.5785 43.1513 20.5002 42.5797 21.0719L31.2397 32.4119C30.668 32.9835 29.7522 32.9835 29.1805 32.4119L22.3905 25.651V25.6569Z" fill="#F47E51"/>
</svg>
