<svg width="23" height="23" viewBox="0 0 23 23" fill="none" xmlns="http://www.w3.org/2000/svg">
<g clip-path="url(#clip0_715_1470)">
<path fill-rule="evenodd" clip-rule="evenodd" d="M22.0709 18.7655H19.5549C18.5946 18.7655 18.3137 17.9998 16.6076 16.2947C15.1151 14.8558 14.4745 14.6686 14.1021 14.6686C13.5951 14.6686 13.4437 14.8127 13.4437 15.5311V17.7873C13.4437 18.4058 13.2459 18.7655 11.6461 18.7655C8.98068 18.7655 6.05128 17.1478 3.97178 14.1626C0.853048 9.79115 0 6.4873 0 5.82043C0 5.44702 0.143051 5.10938 0.862515 5.10938H3.37854C4.02121 5.10938 4.26314 5.39022 4.50507 6.08654C5.73573 9.67124 7.80997 12.8036 8.66302 12.8036C8.98278 12.8036 9.13004 12.6564 9.13004 11.8433V8.1387C9.03643 6.43365 8.13079 6.29376 8.13079 5.68684C8.13079 5.406 8.37061 5.10938 8.77031 5.10938H12.7242C13.2575 5.10938 13.4437 5.39443 13.4437 6.03395V11.0176C13.4437 11.5509 13.6751 11.7371 13.835 11.7371C14.1547 11.7371 14.4219 11.5509 15.0078 10.964C16.8212 8.93915 18.1002 5.82043 18.1002 5.82043C18.2601 5.44702 18.5557 5.10938 19.1952 5.10938H21.7112C22.4727 5.10938 22.6326 5.50066 22.4727 6.03395C22.1519 7.49918 19.0868 11.817 19.0868 11.817C18.8197 12.243 18.7134 12.4565 19.0868 12.9362C19.353 13.3096 20.2334 14.0553 20.8192 14.7485C21.9005 15.9644 22.7147 16.99 22.9419 17.6968C23.1491 18.4058 22.7893 18.7655 22.0709 18.7655Z" fill="#393C41"/>
</g>
<defs>
<clipPath id="clip0_715_1470">
<rect width="23" height="23" fill="white"/>
</clipPath>
</defs>
</svg>
