<svg width="31" height="22" viewBox="0 0 31 22" fill="none" xmlns="http://www.w3.org/2000/svg">
<path d="M24.8402 5.3512H22.418C22.764 4.92212 22.9024 4.39614 22.9024 3.88054C22.9024 3.03275 22.5668 2.21609 21.9646 1.61745C21.3625 1.0188 20.5493 0.679688 19.7016 0.679688C17.5838 0.679688 16.3069 2.20226 15.6148 3.4653C15.5733 3.53797 15.5353 3.61409 15.4972 3.68676C15.4591 3.61409 15.4211 3.53797 15.3795 3.4653C14.6875 2.20572 13.4106 0.679688 11.2928 0.679688C10.445 0.679688 9.62838 1.01534 9.02974 1.61745C8.43109 2.21609 8.09196 3.03275 8.09196 3.88054C8.09196 4.39614 8.23039 4.92212 8.57643 5.3512H6.15416C5.67663 5.3512 5.28906 5.73877 5.28906 6.2163V10.8878C5.28906 11.3654 5.67663 11.7529 6.15416 11.7529H7.15767V20.2309C7.15767 20.7084 7.54523 21.0959 8.02276 21.0959H22.9716C23.4491 21.0959 23.8367 20.7084 23.8367 20.2309V11.7529H24.8402C25.3178 11.7529 25.7053 11.3654 25.7053 10.8878V6.2163C25.7053 5.73877 25.3178 5.3512 24.8402 5.3512ZM10.2513 2.83896C10.5281 2.56213 10.9018 2.40988 11.2928 2.40988C12.4451 2.40988 13.2722 3.22307 13.8639 4.29579C14.0646 4.65913 14.2203 5.02593 14.3414 5.3512H11.2963C10.9053 5.3512 10.5315 5.19549 10.2547 4.92212C9.97787 4.64875 9.82562 4.27157 9.82562 3.88054C9.82562 3.48952 9.98133 3.11579 10.2547 2.83896H10.2513ZM14.6321 19.3658H8.88786V11.7529H14.6321V19.3658ZM14.6321 10.0227H7.01925V7.0814H14.6321V10.0227ZM17.1305 4.29579C17.7222 3.21961 18.5458 2.40988 19.7016 2.40988C20.0926 2.40988 20.4663 2.56559 20.7431 2.83896C21.02 3.11579 21.1722 3.48952 21.1722 3.88054C21.1722 4.27157 21.0165 4.64529 20.7431 4.92212C20.4698 5.19895 20.0926 5.3512 19.7016 5.3512H16.6564C16.7775 5.02593 16.9332 4.65913 17.1339 4.29579H17.1305ZM22.1065 19.3658H16.3623V11.7529H22.1065V19.3658ZM23.9751 10.0227H16.3623V7.0814H23.9751V10.0227Z" fill="#F47E51"/>
</svg>
