<svg width="30" height="22" viewBox="0 0 30 22" fill="none" xmlns="http://www.w3.org/2000/svg">
<path d="M4.77344 1.54688C4.77344 1.0725 5.15526 0.6875 5.62571 0.6875H19.2621C19.7325 0.6875 20.1143 1.0725 20.1143 1.54688V4.50656C19.5757 4.31406 19.003 4.19031 18.4098 4.14562V2.40625H6.47798V19.5938H18.4098V17.5106C19.003 17.4659 19.5757 17.3422 20.1143 17.1497V20.4531C20.1143 20.9275 19.7325 21.3125 19.2621 21.3125H5.62571C5.15526 21.3125 4.77344 20.9275 4.77344 20.4531V1.54688Z" fill="#F47E51"/>
<path d="M17.8963 5.83984C15.1656 5.83984 12.9531 8.07078 12.9531 10.8242C12.9531 13.5777 15.1656 15.8086 17.8963 15.8086C18.9531 15.8086 19.9349 15.4717 20.7361 14.9045L23.1804 17.3692C23.5145 17.7061 24.0531 17.7061 24.3872 17.3692C24.7213 17.0323 24.7213 16.4892 24.3872 16.1523L21.9429 13.6877C22.5088 12.8764 22.8395 11.8898 22.8395 10.8242C22.8395 8.07078 20.627 5.83984 17.8963 5.83984ZM14.6577 10.8242C14.6577 9.01953 16.1065 7.55859 17.8963 7.55859C19.6861 7.55859 21.1349 9.01953 21.1349 10.8242C21.1349 11.7248 20.7736 12.543 20.1872 13.1342C19.6009 13.7255 18.7929 14.0898 17.8963 14.0898C16.1065 14.0898 14.6577 12.6289 14.6577 10.8242Z" fill="#F47E51"/>
</svg>
