<svg width="31" height="22" viewBox="0 0 31 22" fill="none" xmlns="http://www.w3.org/2000/svg">
<g clip-path="url(#clip0_1241_1090)">
<path d="M9.2777 0.6875C6.45365 0.6875 4.16406 2.99617 4.16406 5.84375C4.16406 8.69133 6.45365 11 9.2777 11C12.1017 11 14.3913 8.69133 14.3913 5.84375C14.3913 2.99617 12.1017 0.6875 9.2777 0.6875ZM5.81362 5.84375C5.81362 3.91431 7.36421 2.35081 9.2777 2.35081C11.1912 2.35081 12.7418 3.91431 12.7418 5.84375C12.7418 7.77319 11.1912 9.33669 9.2777 9.33669C7.36421 9.33669 5.81362 7.77319 5.81362 5.84375Z" fill="#F47E51"/>
<path d="M18.9205 5.5905C19.0756 5.43415 19.2834 5.34766 19.5045 5.34766H29.4018C29.8571 5.34766 30.2266 5.72024 30.2266 6.17931V13.3249C30.2266 13.5444 30.1408 13.7573 29.9858 13.9137C29.8307 14.07 29.6229 14.1565 29.4018 14.1565H23.3116L20.933 16.5583C20.1016 17.3967 18.6797 16.8045 18.6797 15.6169V6.17931C18.6797 5.95975 18.7655 5.74685 18.9205 5.5905ZM20.3292 7.01096V14.8152L22.3846 12.7394C22.5397 12.583 22.7475 12.4965 22.9685 12.4965H28.577V7.01429H20.3292V7.01096Z" fill="#F47E51"/>
<path d="M3.56408 14.7166C5.07838 13.1864 7.13703 12.3281 9.27816 12.3281C11.4193 12.3281 13.4779 13.1864 14.9922 14.7166C16.5098 16.2469 17.361 18.3194 17.361 20.4783C17.361 20.6979 17.2752 20.9108 17.1202 21.0671C16.9651 21.2235 16.7573 21.31 16.5362 21.31H2.02009C1.80235 21.31 1.5912 21.2235 1.43614 21.0671C1.28108 20.9108 1.19531 20.6979 1.19531 20.4783C1.19531 18.316 2.04648 16.2435 3.56408 14.7166ZM9.27816 13.9914C7.57251 13.9914 5.93614 14.6734 4.72866 15.8909C3.71913 16.9089 3.0791 18.2329 2.89765 19.6467H15.6586C15.4772 18.2329 14.8372 16.9089 13.8276 15.8909C12.6202 14.6734 10.9838 13.9914 9.27816 13.9914Z" fill="#F47E51"/>
</g>
<defs>
<clipPath id="clip0_1241_1090">
<rect width="30" height="22" fill="white" transform="translate(0.515625)"/>
</clipPath>
</defs>
</svg>
