<svg width="50" height="50" viewBox="0 0 50 50" fill="none" xmlns="http://www.w3.org/2000/svg">
<path d="M13.3069 27.9628C12.4938 27.1539 12.4913 25.8392 13.3002 25.0261C14.1092 24.2139 15.423 24.2106 16.2361 25.0195L22.5654 31.3189L36.317 17.5674C37.1275 16.7568 38.4422 16.7568 39.2528 17.5674C40.0634 18.3788 40.0634 19.6935 39.2528 20.504L24.0371 35.7198C23.2273 36.5295 21.9159 36.5312 21.1045 35.7231L13.3069 27.9628Z" fill="#F47E51"/>
<path d="M5.15254 25.5C5.15254 14.2624 14.2624 5.15254 25.5 5.15254C36.7376 5.15254 45.8475 14.2624 45.8475 25.5C45.8475 31.1192 43.5719 36.2036 39.8877 39.8877C36.2036 43.5727 31.1192 45.8475 25.5 45.8475C14.2624 45.8475 5.15254 36.7376 5.15254 25.5ZM25.5 1C11.9694 1 1 11.9694 1 25.5C1 39.0306 11.9694 50 25.5 50C32.2653 50 38.3928 47.2552 42.8236 42.8244C47.2552 38.3928 50 32.2653 50 25.5C50 11.9694 39.0306 1 25.5 1Z" fill="#F47E51"/>
</svg>
