<svg width="50" height="50" viewBox="0 0 50 50" fill="none" xmlns="http://www.w3.org/2000/svg">
<path d="M27.5744 11.3819C27.5744 10.2358 26.6451 9.30566 25.4981 9.30566C24.3512 9.30566 23.4219 10.2358 23.4219 11.3819V25.5006C23.4219 26.243 23.8172 26.9282 24.46 27.2986L34.5291 33.1122C35.5224 33.6852 36.7922 33.3456 37.3653 32.3523C37.9392 31.359 37.5987 30.0891 36.6054 29.5161L27.5744 24.3021V11.3819Z" fill="#F47E51"/>
<path d="M5.15254 25.5C5.15254 14.2624 14.2624 5.15254 25.5 5.15254C36.7376 5.15254 45.8475 14.2624 45.8475 25.5C45.8475 31.1192 43.5719 36.2036 39.8877 39.8877C36.2036 43.5727 31.1192 45.8475 25.5 45.8475C14.2624 45.8475 5.15254 36.7376 5.15254 25.5ZM25.5 1C11.9694 1 1 11.9694 1 25.5C1 39.0306 11.9694 50 25.5 50C32.2653 50 38.3928 47.2552 42.8244 42.8244C47.2552 38.3928 50 32.2653 50 25.5C50 11.9694 39.0306 1 25.5 1Z" fill="#F47E51"/>
</svg>
