<svg width="21" height="21" viewBox="0 0 21 21" fill="none" xmlns="http://www.w3.org/2000/svg">
<path d="M0.94981 0.00380295C0.425515 0.00380295 0 0.429318 0 0.953613V18.0502C0 18.5745 0.425515 19 0.94981 19H4.74905C5.19356 19 5.58108 18.6923 5.67607 18.2554L9.4753 1.15877C9.53609 0.877631 9.4715 0.585084 9.28914 0.357129C9.11058 0.132974 8.83703 0 8.54829 0H0.94981V0.00380295ZM7.36293 1.90342L3.9854 17.1004H1.89962V1.90342H7.36293Z" fill="#2F3338"/>
<path d="M12.3482 0.00380295C11.824 0.00380295 11.3984 0.429318 11.3984 0.953613V18.0502C11.3984 18.5745 11.824 19 12.3482 19H16.1475C16.592 19 16.9795 18.6923 17.0745 18.2554L20.8737 1.15877C20.9345 0.877631 20.8699 0.585084 20.6876 0.357129C20.509 0.132974 20.2355 0 19.9467 0H12.3482V0.00380295ZM18.7614 1.90342L15.3838 17.1004H13.2981V1.90342H18.7614Z" fill="#2F3338"/>
</svg>
